<?xml version="1.0" encoding="utf-8"?>
<!-- Generator: Adobe Illustrator 27.2.0, SVG Export Plug-In . SVG Version: 6.00 Build 0)  -->
<svg version="1.1" id="Ebene_1" xmlns="http://www.w3.org/2000/svg" xmlns:xlink="http://www.w3.org/1999/xlink" x="0px" y="0px"
	 viewBox="0 0 440.7 485" style="enable-background:new 0 0 440.7 485;" xml:space="preserve">
<style type="text/css">
	.st0{fill:none;stroke:#FFFFFF;stroke-width:2.5675;stroke-miterlimit:10;}
	.st1{fill:none;stroke:#FFFFFF;stroke-width:3;stroke-miterlimit:10;}
	.st2{fill:#FFFFFF;}
	.st3{fill:#6CBF55;}
	.st4{fill:none;stroke:#FFFFFF;stroke-width:2.8251;stroke-miterlimit:10;}
</style>
<path class="st0" d="M128.6,393.9c47.1-18.2,39.7-69.9,39.7-80.6c-19.5-5.9-39.7-6.4-39.7-6.4s-20.2,0.5-39.7,6.4
	C88.9,324,81.5,375.8,128.6,393.9"/>
<polygon class="st0" points="150.8,339.3 135,339.3 135,323.5 122.2,323.5 122.2,339.3 106.4,339.3 106.4,352.1 122.2,352.1 
	122.2,367.9 135,367.9 135,352.1 150.8,352.1 "/>
<path class="st1" d="M360.1,191h-17.9c-2.6,0-4.6,2.1-4.6,4.6V206c0,3.9-4.5,6-7.5,3.6L308,192c-0.8-0.7-1.8-1-2.9-1h-81
	c-2.6,0-4.6-2.1-4.6-4.6V63.7c0-2.6,2.1-4.6,4.6-4.6h136c2.6,0,4.6,2.1,4.6,4.6v122.7C364.7,189,362.7,191,360.1,191z"/>
<g>
	<path class="st2" d="M65.7,24.2L65,27.3h0.7c6.7-9.2,14.4-13.8,23-13.8c4.4,0,8.2,1.2,11.4,3.7c3.2,2.5,5,5.8,5.4,10.1h0.7
		c6.5-9.2,14.2-13.8,22.9-13.8c5.1,0,9.3,1.6,12.4,4.7c3.5,3.5,5.2,8.9,5.2,16.3V63l0.7,11.2l5.2,0.7l0.7,6H128l0.7-6l5.2-0.7
		l0.7-11.2V36.6c0-4.6-0.4-7.8-1.1-9.6c-1.2-3.1-3.9-4.6-7.8-4.6c-6.6,0-13.2,3.5-19.6,10.4V63l0.7,11.2l5.2,0.7l0.7,6H87.6l0.7-6
		l5.2-0.7L94.3,63V36.6c0-4.6-0.4-7.7-1.1-9.6c-1.2-3.1-3.8-4.6-7.7-4.6c-6.5,0-13.1,3.5-19.8,10.4V63l0.7,11.2l5.2,0.7l0.7,6H47.1
		l0.7-6l5.2-0.7L53.8,63V32.2L53,21.7L47.8,21l-0.7-6l18.6-0.7V24.2z"/>
	<path class="st2" d="M220.5,46.5h-40.9c0.2,7,1.1,12.2,2.8,15.8c1.7,3.6,4.2,6.4,7.6,8.6c3.4,2.2,7,3.3,10.8,3.3
		c7.1,0,13.7-1.7,19.6-5.2v8.9c-7.2,3-14.1,4.5-20.7,4.5c-10,0-18.1-3.4-24.1-10.2c-5.8-6.5-8.7-14.9-8.7-25
		c0-9.4,2.5-17.2,7.6-23.5c5.4-6.8,12.6-10.2,21.7-10.2c8.3,0,14.7,3.3,19.1,9.9c3.4,5.1,5.1,12.3,5.1,21.6L220.5,46.5L220.5,46.5z
		 M180.4,40.5h27.5c0-6.1-0.6-10.7-1.9-13.8c-2-4.8-5.6-7.2-10.8-7.2c-4.8,0-8.6,2.4-11.3,7.2C181.7,30.6,180.5,35.2,180.4,40.5z"/>
	<path class="st2" d="M290.4,46.5h-40.9c0.2,7,1.1,12.2,2.8,15.8c1.7,3.6,4.2,6.4,7.6,8.6c3.4,2.2,7,3.3,10.8,3.3
		c7.1,0,13.7-1.7,19.6-5.2v8.9c-7.2,3-14.1,4.5-20.7,4.5c-10,0-18.1-3.4-24.1-10.2c-5.8-6.5-8.7-14.9-8.7-25
		c0-9.4,2.5-17.2,7.6-23.5c5.4-6.8,12.6-10.2,21.7-10.2c8.3,0,14.7,3.3,19.1,9.9c3.4,5.1,5.1,12.3,5.1,21.6v1.5H290.4z M250.3,40.5
		h27.5c0-6.1-0.6-10.7-1.9-13.8c-2-4.8-5.6-7.2-10.8-7.2c-4.8,0-8.6,2.4-11.3,7.2C251.6,30.6,250.5,35.2,250.3,40.5z"/>
	<path class="st2" d="M315,58.8v-37h-8.3V15h8.3V3l12-3v15h16.8v6.7H327v38.6c0,4.6,0.5,8.1,1.6,10.3c1.7,3.3,4.3,5,7.8,5
		c2.2,0,4.6-0.6,7.3-1.9v6.7c-2.7,1.2-5.8,1.9-9.3,1.9c-6.9,0-12.1-2.2-15.7-6.6c-1.7-2.2-2.9-4.8-3.4-8.1
		C315.2,66,315,63.1,315,58.8z"/>
</g>
<g>
	<path class="st3" d="M271,331.1l-11.8-12.9c-17.5,11.7-34.9,17.5-52.2,17.5c-17.1,0-31.7-5.8-43.8-17.3
		c-12.1-11.6-18.1-25.9-18.1-43.1c0-13.4,4.6-25.2,13.9-35.5c8.6-9.6,19.6-16.4,33.2-20.3c-9.6-14.4-14.4-27.3-14.4-38.8
		c0-11.1,4.4-20.8,13.1-29c7.9-7.4,17.9-11.1,30.1-11.1c12.9,0,23.2,3.1,31.1,9.3c8.7,6.7,13.1,16.3,13.1,28.8
		c0,10.6-4.5,20.3-13.4,29c-7.7,7.5-17.2,13-28.5,16.4l45.7,67.1c8.4-10.3,12.8-25.4,13.1-45.2l-13.1-1.5l-1.5-12.6h45.7l-1.5,12.6
		l-12.3,1.5c-2.1,19.7-9.5,38-22.4,55l14.4,16.2l12.6,1.5l1.5,12.3H271V331.1z M251.7,308.5l-53.9-78.1
		c-18.7,7.7-28.1,20.5-28.1,38.3c0,14.1,5.1,26.1,15.2,36.2c9.3,9.3,21.1,13.9,35.3,13.9C232.3,318.8,242.7,315.4,251.7,308.5z
		 M216,211.9l0.8,1.5c16.8-8.1,25.2-20.7,25.2-38c0-14.9-6.3-22.4-19-22.4c-6,0-10.9,2.3-14.8,6.8c-3.9,4.5-5.8,9.9-5.8,16.1
		c0,5.5,1.5,11.7,4.6,18.5C210,200.2,213,206.1,216,211.9z"/>
</g>
<g>
	<path class="st3" d="M271,331.1l-11.8-12.9c-17.5,11.7-34.9,17.5-52.2,17.5c-17.1,0-31.7-5.8-43.8-17.3
		c-12.1-11.6-18.1-25.9-18.1-43.1c0-13.4,4.6-25.2,13.9-35.5c8.6-9.6,19.6-16.4,33.2-20.3c-9.6-14.4-14.4-27.3-14.4-38.8
		c0-11.1,4.4-20.8,13.1-29c7.9-7.4,17.9-11.1,30.1-11.1c12.9,0,23.2,3.1,31.1,9.3c8.7,6.7,13.1,16.3,13.1,28.8
		c0,10.6-4.5,20.3-13.4,29c-7.7,7.5-17.2,13-28.5,16.4l45.7,67.1c8.4-10.3,12.8-25.4,13.1-45.2l-13.1-1.5l-1.5-12.6h45.7l-1.5,12.6
		l-12.3,1.5c-2.1,19.7-9.5,38-22.4,55l14.4,16.2l12.6,1.5l1.5,12.3H271V331.1z M251.7,308.5l-53.9-78.1
		c-18.7,7.7-28.1,20.5-28.1,38.3c0,14.1,5.1,26.1,15.2,36.2c9.3,9.3,21.1,13.9,35.3,13.9C232.3,318.8,242.7,315.4,251.7,308.5z
		 M216,211.9l0.8,1.5c16.8-8.1,25.2-20.7,25.2-38c0-14.9-6.3-22.4-19-22.4c-6,0-10.9,2.3-14.8,6.8c-3.9,4.5-5.8,9.9-5.8,16.1
		c0,5.5,1.5,11.7,4.6,18.5C210,200.2,213,206.1,216,211.9z"/>
</g>
<g>
	<path class="st2" d="M231.8,435.5h-56.3c0.2,9.6,1.5,16.8,3.9,21.7c2.3,4.9,5.8,8.9,10.5,11.9s9.6,4.5,14.9,4.5
		c9.8,0,18.8-2.4,27-7.2v12.3c-9.9,4.1-19.5,6.2-28.6,6.2c-13.8,0-24.9-4.7-33.2-14c-8-9-12-20.5-12-34.4c0-12.9,3.5-23.7,10.4-32.3
		c7.4-9.4,17.4-14,30-14c11.4,0,20.2,4.6,26.4,13.7c4.7,7,7,16.9,7,29.8L231.8,435.5L231.8,435.5z M176.5,427.3h37.8
		c0-8.4-0.9-14.8-2.6-19c-2.7-6.6-7.7-9.9-14.9-9.9c-6.6,0-11.8,3.3-15.6,9.9C178.3,413.7,176.7,420,176.5,427.3z"/>
	<path class="st2" d="M301.8,429.4h2.1v-5.6c0-10.2-1-16.6-3.1-19.3c-3-4-7.6-6-14-6c-6.7,0-12.7,2.5-18,7.4l-1,9.1h-8.2l-1-16.9
		c11.2-5.1,22-7.7,32.5-7.7c9.4,0,16.8,2.5,22.2,7.4c3.2,2.9,5.2,6.2,6.2,10.1c0.6,2.2,0.9,6.1,0.9,11.8V456c0,12.7,2.7,19,8.2,19
		c1,0,2.5-0.3,4.3-1l1,9.2c-3.9,1.4-7.5,2.1-10.8,2.1c-8.2,0-13.3-4.8-15.4-14.5c-9.5,9.7-19.3,14.5-29.6,14.5
		c-7.3,0-13.5-2.4-18.7-7.3c-5.1-4.8-7.7-10.9-7.7-18.2c0-11.8,5.9-20.3,17.8-25.7C275.9,430.9,286.7,429.4,301.8,429.4z M303.8,466
		v-28.4h-2.4c-21.6,0-32.3,6.5-32.3,19.5c0,4.8,1.5,8.8,4.6,11.9s7.1,4.7,12,4.7C290.8,473.7,296.8,471.1,303.8,466z"/>
	<path class="st2" d="M361.7,452.5v-51h-11.5v-9.2h11.5v-16.6l16.4-4.1v20.7h23.1v9.2h-23.1v53.2c0,6.4,0.7,11.1,2.2,14.2
		c2.3,4.6,5.9,6.8,10.8,6.8c3,0,6.3-0.9,10.1-2.6v9.2c-3.8,1.7-8,2.6-12.8,2.6c-9.5,0-16.7-3-21.6-9.1c-2.4-3-3.9-6.7-4.6-11.1
		C361.8,462.5,361.7,458.4,361.7,452.5z"/>
</g>
<path class="st1" d="M62.6,414.7h17.9c2.6,0,4.6,2.1,4.6,4.6v10.4c0,3.9,4.5,6,7.5,3.6l22.1-17.6c0.8-0.7,1.8-1,2.9-1h81
	c2.6,0,4.6-2.1,4.6-4.6V287.3c0-2.6-2.1-4.6-4.6-4.6h-136c-2.6,0-4.6,2.1-4.6,4.6V410C58,412.6,60,414.7,62.6,414.7z"/>
<g>
	<g>
		<path class="st4" d="M438.7,203.1l-33.9,61c-16.2,29.1-40.1,46.7-53.4,39.3l0,0c-13.3-7.4-11-37,5.2-66.1l33.9-61L438.7,203.1z"/>
		<path class="st4" d="M374.5,205.7c0,0,7.8,15.3,20.5,15.3s20.6-1.8,30.9,5.6"/>
		<g>
			<line class="st4" x1="351.5" y1="303.4" x2="311.3" y2="375.7"/>
			<line class="st4" x1="285" y1="361.1" x2="337.5" y2="390.4"/>
		</g>
	</g>
	<circle class="st2" cx="377.3" cy="234" r="3"/>
	<circle class="st2" cx="375.1" cy="277.1" r="3.4"/>
	<circle class="st2" cx="388.2" cy="250.7" r="2.3"/>
	<circle class="st2" cx="369" cy="256.9" r="1.9"/>
	<circle class="st2" cx="404.8" cy="233.3" r="3.8"/>
	<circle class="st2" cx="356.4" cy="289.8" r="3"/>
</g>
<g>
	<path class="st0" d="M106,168.3c-0.2-0.8-0.3-1.6-0.5-2.4c-0.1-0.5-0.3-0.9-0.4-1.4c-0.2-0.5-0.3-1.1-0.5-1.6v-0.1l0,0
		c-1.2-3.3-2.9-6.6-5.1-9.5c-12.3-16.5-35.6-20-52.2-7.8c-16.5,12.3-20,35.6-7.8,52.2c2.2,3,4.8,5.5,7.6,7.7l0,0c0,0,0.1,0,0.1,0.1
		c0.5,0.3,0.9,0.6,1.4,1c0.4,0.3,0.8,0.5,1.2,0.8c0.7,0.4,1.4,0.8,2.1,1.2c0.1,0.1,0.2,0.1,0.4,0.2c0.7,0.4,1.4,0.7,2.2,1.1
		c12.2,5.6,27.7,7.6,36.3,19.1l23.5-17.4c-8.6-11.6-6-27-7.8-40.3c-0.1-0.8-0.2-1.6-0.4-2.4C106,168.5,106,168.4,106,168.3z"/>
	<line class="st0" x1="109.2" y1="145.9" x2="125.5" y2="133.9"/>
	<line class="st0" x1="89.2" y1="130" x2="97.2" y2="111.4"/>
	<line class="st0" x1="63.8" y1="126.2" x2="61.5" y2="106.1"/>
	<line class="st0" x1="40" y1="135.6" x2="27.9" y2="119.4"/>
	<line class="st0" x1="24" y1="155.7" x2="5.5" y2="147.6"/>
	<line class="st0" x1="20.2" y1="181.1" x2="0.1" y2="183.4"/>
	<line class="st0" x1="29.6" y1="204.9" x2="13.4" y2="216.9"/>
	<line class="st0" x1="49.7" y1="220.9" x2="41.7" y2="239.4"/>
	<line class="st0" x1="118.6" y1="169.8" x2="138.7" y2="167.5"/>
	
		<rect x="94.2" y="217.9" transform="matrix(0.8035 -0.5953 0.5953 0.8035 -114.7277 109.7482)" class="st0" width="29.3" height="21.5"/>
	<line class="st0" x1="95.1" y1="234.6" x2="118.6" y2="217.2"/>
	<line class="st0" x1="99.4" y1="240.6" x2="123" y2="223.2"/>
	<path class="st0" d="M106.3,243.9c3.6,4.9,10.6,5.9,15.5,2.3c4.9-3.6,5.9-10.6,2.3-15.5"/>
</g>
<g>
	<path class="st2" d="M22.1,400.8H32l4.5-0.3l0.3-2.1l2.4-0.3v10.1l-2.4-0.3l-0.3-2.1l-4.5-0.3H10.4l-4.5,0.3l-0.3,2.1l-2.4,0.3
		v-22.4l5.1,0.3L8,388.5l-2.1,0.3l-0.3,4.8v7.2h14v-12.3l2.7,0.3l-0.3,4.8v7.2H22.1z"/>
	<path class="st2" d="M35.5,361.7l-1.2-0.3v0.3c1.6,1,2.9,2.3,3.9,4.1c1.1,1.8,1.6,3.6,1.6,5.3c0,2.4-0.8,4.3-2.5,5.6
		c-1.4,1.2-3.6,1.7-6.5,1.7H20l-4.5,0.3l-0.3,2.1l-2.4,0.3l-0.3-7.7l7.1,0.3H30c2.1,0,3.5-0.2,4.3-0.5c1.2-0.6,1.8-1.8,1.8-3.7
		c0-2.6-1.4-5.2-4.2-7.8H19.7l-4.2,0.3l-0.3,2.1l-2.4,0.3l-0.3-7.7l7.1,0.3H32l4.5-0.3l0.3-2.1l2.4-0.3l0.3,7.4L35.5,361.7
		L35.5,361.7z"/>
	<path class="st2" d="M16.5,340.2l1.2,0.3v-0.3c-1.6-1-2.9-2.3-3.9-4.1c-1.1-1.8-1.6-3.6-1.6-5.3c0-2.4,0.8-4.3,2.5-5.6
		c1.4-1.2,3.6-1.7,6.5-1.7H32l4.5-0.3l0.3-2.1l2.4-0.3v10.1l-2.4-0.3l-0.3-2.1l-4.5-0.3H22c-2.1,0-3.6,0.2-4.3,0.5
		c-1.2,0.6-1.8,1.8-1.8,3.7c0,1.4,0.4,2.8,1.3,4.3c0.6,0.9,1.5,2.1,2.9,3.5h12l4.5-0.3l0.3-2.1l2.4-0.3v10.1l-2.4-0.3l-0.3-2.1
		L32,345H19.7l-4.2,0.3l-0.3,2.1l-2.4,0.3l-0.3-7.4L16.5,340.2L16.5,340.2z"/>
	<path class="st2" d="M26.2,307.6H32l4.5-0.3l0.3-1.5l2.4-0.3v9.5l-2.4-0.3l-0.3-2.1l-4.5-0.3H7.7l-4.2,0.3l-0.3,2.1L0.8,315
		l-0.3-7.7l7.1,0.3H25v-1.1l-9.5-8.9l-0.3,2.1l-2.4,0.3v-7.8l2.4,0.3l0.3,1.5l8.4,8.2l12.6-10.9l0.3-2.1l2.4-0.3v7l-13,10.6V307.6z"
		/>
</g>
<g>
	<path class="st2" d="M350.3,173.7l-2.3-0.1l0.1-1.1l1.1-0.1c0.4-0.7,0.6-1.5,0.6-2.3c0-1.4-0.9-2.5-2.6-3.3c-1.3-0.6-2.8-0.9-4.5-1
		c1.2,1,1.8,2.3,1.8,3.9c0,1.4-0.5,2.6-1.6,3.5c-1,0.9-2.2,1.3-3.7,1.3c-1.4,0-2.6-0.4-3.7-1.3c-1.2-1-1.9-2.3-1.9-4
		c0-2.1,0.8-3.6,2.4-4.5c1.4-0.8,3.3-1.3,5.5-1.3c2.4,0,4.5,0.5,6.1,1.5c2.1,1.3,3.1,3.1,3.1,5.4
		C350.9,171.3,350.7,172.5,350.3,173.7z M343.5,169.1c0-0.5-0.1-1-0.4-1.6c-0.3-0.5-0.6-1-1-1.3c-0.5-0.4-1.2-0.6-2-0.6
		c-1.3,0-2.4,0.3-3.4,0.8c-1.3,0.7-1.9,1.6-1.9,2.7c0,0.6,0.2,1.2,0.7,1.7c0.4,0.5,0.9,0.8,1.6,1c0.6,0.2,1.3,0.3,2,0.3
		c1.2,0,2.2-0.2,3-0.7C343,171.1,343.5,170.2,343.5,169.1z"/>
	<path class="st2" d="M350.5,159.5h-2.7v-2.7h2.7V159.5z"/>
	<path class="st2" d="M347.2,143l2-0.1l0.1-0.9l1.1-0.1v4.1l-1.1-0.1l-0.1-0.9l-2-0.1h-9.8l-2,0.1l-0.1,0.9l-1.1,0.1V142l12-4.6
		l-12-4.8v-3.3l1.1,0.1l0.1,0.9l2,0.1h9.8l2-0.1l0.1-0.9l1.1-0.1v4.5l-1.1-0.1l-0.1-0.9l-2-0.1h-9.9v0l12,4.7v1.1l-12,4.6H347.2z"/>
	<path class="st2" d="M343.4,120.2v-0.3h-0.7c-1.3,0-2.2,0.1-2.6,0.4c-0.5,0.4-0.8,1-0.8,1.9c0,0.9,0.3,1.7,1,2.4l1.2,0.1v1.1
		l-2.2,0.1c-0.7-1.5-1-2.9-1-4.3c0-1.2,0.3-2.2,1-2.9c0.4-0.4,0.8-0.7,1.3-0.8c0.3-0.1,0.8-0.1,1.6-0.1h4.8c1.7,0,2.5-0.4,2.5-1.1
		c0-0.1,0-0.3-0.1-0.6l1.2-0.1c0.2,0.5,0.3,1,0.3,1.4c0,1.1-0.6,1.8-1.9,2c1.3,1.3,1.9,2.6,1.9,3.9c0,1-0.3,1.8-1,2.5
		c-0.6,0.7-1.4,1-2.4,1c-1.6,0-2.7-0.8-3.4-2.4C343.6,123.6,343.4,122.2,343.4,120.2z M348.2,119.9h-3.8v0.3c0,2.8,0.9,4.3,2.6,4.3
		c0.6,0,1.2-0.2,1.6-0.6c0.4-0.4,0.6-0.9,0.6-1.6C349.2,121.6,348.9,120.8,348.2,119.9z"/>
	<path class="st2" d="M336.3,112.4h-2.2v-2.2h2.2V112.4z M341.6,110.3h5.6l2-0.1l0.1-0.9l1.1-0.1v4.6l-1.1-0.1l-0.1-0.9l-2-0.1h-5.6
		l-1.9,0.1l-0.1,0.9l-1.1,0.1l-0.1-3.5L341.6,110.3z"/>
</g>
</svg>
