<?xml version="1.0" encoding="utf-8"?>
<!-- Generator: Adobe Illustrator 28.2.0, SVG Export Plug-In . SVG Version: 6.00 Build 0)  -->
<svg version="1.1" id="Ebene_1" xmlns="http://www.w3.org/2000/svg" xmlns:xlink="http://www.w3.org/1999/xlink" x="0px" y="0px"
	 viewBox="0 0 440.7 485" style="enable-background:new 0 0 440.7 485;" xml:space="preserve">
<style type="text/css">
	.st0{fill:none;stroke:#FFFFFF;stroke-width:1.4173;stroke-miterlimit:10;}
	.st1{fill:#FFFFFF;}
	.st2{fill:#6CBF55;}
	.st3{fill:none;stroke:#FFFFFF;stroke-width:2.8251;stroke-miterlimit:10;}
	.st4{fill:none;stroke:#FFFFFF;stroke-width:2.5675;stroke-miterlimit:10;}
</style>
<path class="st0" d="M360.4,191h-17.9c-2.6,0-4.6,2.1-4.6,4.6V206c0,3.9-4.5,6-7.5,3.6L308.3,192c-0.8-0.7-1.8-1-2.9-1h-81
	c-2.6,0-4.6-2.1-4.6-4.6V63.7c0-2.6,2.1-4.6,4.6-4.6h136c2.6,0,4.6,2.1,4.6,4.6v122.7C365,189,363,191,360.4,191z"/>
<g>
	<path class="st1" d="M65.7,24.2L65,27.3h0.7c6.7-9.2,14.4-13.8,23-13.8c4.4,0,8.2,1.2,11.4,3.7c3.2,2.5,5,5.8,5.4,10.1h0.7
		c6.5-9.2,14.2-13.8,22.9-13.8c5.1,0,9.3,1.6,12.4,4.7c3.5,3.5,5.2,8.9,5.2,16.3V63l0.7,11.2l5.2,0.7l0.7,6H128l0.7-6l5.2-0.7
		l0.7-11.2V36.6c0-4.6-0.4-7.8-1.1-9.6c-1.2-3.1-3.9-4.6-7.8-4.6c-6.6,0-13.2,3.5-19.6,10.4V63l0.7,11.2l5.2,0.7l0.7,6H87.6l0.7-6
		l5.2-0.7L94.3,63V36.6c0-4.6-0.4-7.7-1.1-9.6c-1.2-3.1-3.8-4.6-7.7-4.6c-6.5,0-13.1,3.5-19.8,10.4V63l0.7,11.2l5.2,0.7l0.7,6H47.1
		l0.7-6l5.2-0.7L53.8,63V32.2L53,21.7L47.8,21l-0.7-6l18.6-0.7V24.2z"/>
	<path class="st1" d="M220.5,46.5h-40.9c0.2,7,1.1,12.2,2.8,15.8c1.7,3.6,4.2,6.4,7.6,8.6c3.4,2.2,7,3.3,10.8,3.3
		c7.1,0,13.7-1.7,19.6-5.2v8.9c-7.2,3-14.1,4.5-20.7,4.5c-10,0-18.1-3.4-24.1-10.2c-5.8-6.5-8.7-14.9-8.7-25
		c0-9.4,2.5-17.2,7.6-23.5c5.4-6.8,12.6-10.2,21.7-10.2c8.3,0,14.7,3.3,19.1,9.9c3.4,5.1,5.1,12.3,5.1,21.6L220.5,46.5L220.5,46.5z
		 M180.4,40.5h27.5c0-6.1-0.6-10.7-1.9-13.8c-2-4.8-5.6-7.2-10.8-7.2c-4.8,0-8.6,2.4-11.3,7.2C181.7,30.6,180.5,35.2,180.4,40.5z"/>
	<path class="st1" d="M290.4,46.5h-40.9c0.2,7,1.1,12.2,2.8,15.8c1.7,3.6,4.2,6.4,7.6,8.6c3.4,2.2,7,3.3,10.8,3.3
		c7.1,0,13.7-1.7,19.6-5.2v8.9c-7.2,3-14.1,4.5-20.7,4.5c-10,0-18.1-3.4-24.1-10.2c-5.8-6.5-8.7-14.9-8.7-25
		c0-9.4,2.5-17.2,7.6-23.5c5.4-6.8,12.6-10.2,21.7-10.2c8.3,0,14.7,3.3,19.1,9.9c3.4,5.1,5.1,12.3,5.1,21.6v1.5L290.4,46.5
		L290.4,46.5z M250.3,40.5h27.5c0-6.1-0.6-10.7-1.9-13.8c-2-4.8-5.6-7.2-10.8-7.2c-4.8,0-8.6,2.4-11.3,7.2
		C251.6,30.6,250.5,35.2,250.3,40.5z"/>
	<path class="st1" d="M315,58.8v-37h-8.3V15h8.3V3l12-3v15h16.8v6.7H327v38.6c0,4.6,0.5,8.1,1.6,10.3c1.7,3.3,4.3,5,7.8,5
		c2.2,0,4.6-0.6,7.3-1.9v6.7c-2.7,1.2-5.8,1.9-9.3,1.9c-6.9,0-12.1-2.2-15.7-6.6c-1.7-2.2-2.9-4.8-3.4-8.1
		C315.2,66,315,63.1,315,58.8z"/>
</g>
<g>
	<path class="st2" d="M271,331.1l-11.8-12.9c-17.5,11.7-34.9,17.5-52.2,17.5c-17.1,0-31.7-5.8-43.8-17.3
		c-12.1-11.6-18.1-25.9-18.1-43.1c0-13.4,4.6-25.2,13.9-35.5c8.6-9.6,19.6-16.4,33.2-20.3c-9.6-14.4-14.4-27.3-14.4-38.8
		c0-11.1,4.4-20.8,13.1-29c7.9-7.4,17.9-11.1,30.1-11.1c12.9,0,23.2,3.1,31.1,9.3c8.7,6.7,13.1,16.3,13.1,28.8
		c0,10.6-4.5,20.3-13.4,29c-7.7,7.5-17.2,13-28.5,16.4l45.7,67.1c8.4-10.3,12.8-25.4,13.1-45.2l-13.1-1.5l-1.5-12.6h45.7l-1.5,12.6
		l-12.3,1.5c-2.1,19.7-9.5,38-22.4,55l14.4,16.2l12.6,1.5l1.5,12.3H271V331.1z M251.7,308.5l-53.9-78.1
		c-18.7,7.7-28.1,20.5-28.1,38.3c0,14.1,5.1,26.1,15.2,36.2c9.3,9.3,21.1,13.9,35.3,13.9C232.3,318.8,242.7,315.4,251.7,308.5z
		 M216,211.9l0.8,1.5c16.8-8.1,25.2-20.7,25.2-38c0-14.9-6.3-22.4-19-22.4c-6,0-10.9,2.3-14.8,6.8c-3.9,4.5-5.8,9.9-5.8,16.1
		c0,5.5,1.5,11.7,4.6,18.5C210,200.2,213,206.1,216,211.9z"/>
</g>
<g>
	<path class="st2" d="M271,331.1l-11.8-12.9c-17.5,11.7-34.9,17.5-52.2,17.5c-17.1,0-31.7-5.8-43.8-17.3
		c-12.1-11.6-18.1-25.9-18.1-43.1c0-13.4,4.6-25.2,13.9-35.5c8.6-9.6,19.6-16.4,33.2-20.3c-9.6-14.4-14.4-27.3-14.4-38.8
		c0-11.1,4.4-20.8,13.1-29c7.9-7.4,17.9-11.1,30.1-11.1c12.9,0,23.2,3.1,31.1,9.3c8.7,6.7,13.1,16.3,13.1,28.8
		c0,10.6-4.5,20.3-13.4,29c-7.7,7.5-17.2,13-28.5,16.4l45.7,67.1c8.4-10.3,12.8-25.4,13.1-45.2l-13.1-1.5l-1.5-12.6h45.7l-1.5,12.6
		l-12.3,1.5c-2.1,19.7-9.5,38-22.4,55l14.4,16.2l12.6,1.5l1.5,12.3H271V331.1z M251.7,308.5l-53.9-78.1
		c-18.7,7.7-28.1,20.5-28.1,38.3c0,14.1,5.1,26.1,15.2,36.2c9.3,9.3,21.1,13.9,35.3,13.9C232.3,318.8,242.7,315.4,251.7,308.5z
		 M216,211.9l0.8,1.5c16.8-8.1,25.2-20.7,25.2-38c0-14.9-6.3-22.4-19-22.4c-6,0-10.9,2.3-14.8,6.8c-3.9,4.5-5.8,9.9-5.8,16.1
		c0,5.5,1.5,11.7,4.6,18.5C210,200.2,213,206.1,216,211.9z"/>
</g>
<g>
	<path class="st1" d="M231.8,435.5h-56.3c0.2,9.6,1.5,16.8,3.9,21.7c2.3,4.9,5.8,8.9,10.5,11.9s9.6,4.5,14.9,4.5
		c9.8,0,18.8-2.4,27-7.2v12.3c-9.9,4.1-19.5,6.2-28.6,6.2c-13.8,0-24.9-4.7-33.2-14c-8-9-12-20.5-12-34.4c0-12.9,3.5-23.7,10.4-32.3
		c7.4-9.4,17.4-14,30-14c11.4,0,20.2,4.6,26.4,13.7c4.7,7,7,16.9,7,29.8L231.8,435.5L231.8,435.5z M176.5,427.3h37.8
		c0-8.4-0.9-14.8-2.6-19c-2.7-6.6-7.7-9.9-14.9-9.9c-6.6,0-11.8,3.3-15.6,9.9C178.3,413.7,176.7,420,176.5,427.3z"/>
	<path class="st1" d="M301.8,429.4h2.1v-5.6c0-10.2-1-16.6-3.1-19.3c-3-4-7.6-6-14-6c-6.7,0-12.7,2.5-18,7.4l-1,9.1h-8.2l-1-16.9
		c11.2-5.1,22-7.7,32.5-7.7c9.4,0,16.8,2.5,22.2,7.4c3.2,2.9,5.2,6.2,6.2,10.1c0.6,2.2,0.9,6.1,0.9,11.8V456c0,12.7,2.7,19,8.2,19
		c1,0,2.5-0.3,4.3-1l1,9.2c-3.9,1.4-7.5,2.1-10.8,2.1c-8.2,0-13.3-4.8-15.4-14.5c-9.5,9.7-19.3,14.5-29.6,14.5
		c-7.3,0-13.5-2.4-18.7-7.3c-5.1-4.8-7.7-10.9-7.7-18.2c0-11.8,5.9-20.3,17.8-25.7C275.9,430.9,286.7,429.4,301.8,429.4z M303.8,466
		v-28.4h-2.4c-21.6,0-32.3,6.5-32.3,19.5c0,4.8,1.5,8.8,4.6,11.9s7.1,4.7,12,4.7C290.8,473.7,296.8,471.1,303.8,466z"/>
	<path class="st1" d="M361.7,452.5v-51h-11.5v-9.2h11.5v-16.6l16.4-4.1v20.7h23.1v9.2h-23.1v53.2c0,6.4,0.7,11.1,2.2,14.2
		c2.3,4.6,5.9,6.8,10.8,6.8c3,0,6.3-0.9,10.1-2.6v9.2c-3.8,1.7-8,2.6-12.8,2.6c-9.5,0-16.7-3-21.6-9.1c-2.4-3-3.9-6.7-4.6-11.1
		C361.8,462.5,361.7,458.4,361.7,452.5z"/>
</g>
<path class="st0" d="M62.6,414.7h17.9c2.6,0,4.6,2.1,4.6,4.6v10.4c0,3.9,4.5,6,7.5,3.6l22.1-17.6c0.8-0.7,1.8-1,2.9-1h81
	c2.6,0,4.6-2.1,4.6-4.6V287.3c0-2.6-2.1-4.6-4.6-4.6h-136c-2.6,0-4.6,2.1-4.6,4.6V410C58,412.6,60,414.7,62.6,414.7z"/>
<g>
	<g>
		<path class="st3" d="M438.7,203.1l-33.9,61c-16.2,29.1-40.1,46.7-53.4,39.3l0,0c-13.3-7.4-11-37,5.2-66.1l33.9-61L438.7,203.1z"/>
		<path class="st3" d="M374.5,205.7c0,0,7.8,15.3,20.5,15.3s20.6-1.8,30.9,5.6"/>
		<g>
			<line class="st3" x1="351.5" y1="303.4" x2="311.3" y2="375.7"/>
			<line class="st3" x1="285" y1="361.1" x2="337.5" y2="390.4"/>
		</g>
	</g>
	<circle class="st1" cx="377.3" cy="234" r="3"/>
	<circle class="st1" cx="375.1" cy="277.1" r="3.4"/>
	<circle class="st1" cx="388.2" cy="250.7" r="2.3"/>
	<circle class="st1" cx="369" cy="256.9" r="1.9"/>
	<circle class="st1" cx="404.8" cy="233.3" r="3.8"/>
	<circle class="st1" cx="356.4" cy="289.8" r="3"/>
</g>
<g>
	<path class="st4" d="M106,168.3c-0.2-0.8-0.3-1.6-0.5-2.4c-0.1-0.5-0.3-0.9-0.4-1.4c-0.2-0.5-0.3-1.1-0.5-1.6v-0.1l0,0
		c-1.2-3.3-2.9-6.6-5.1-9.5c-12.3-16.5-35.6-20-52.2-7.8c-16.5,12.3-20,35.6-7.8,52.2c2.2,3,4.8,5.5,7.6,7.7l0,0c0,0,0.1,0,0.1,0.1
		c0.5,0.3,0.9,0.6,1.4,1c0.4,0.3,0.8,0.5,1.2,0.8c0.7,0.4,1.4,0.8,2.1,1.2c0.1,0.1,0.2,0.1,0.4,0.2c0.7,0.4,1.4,0.7,2.2,1.1
		c12.2,5.6,27.7,7.6,36.3,19.1l23.5-17.4c-8.6-11.6-6-27-7.8-40.3c-0.1-0.8-0.2-1.6-0.4-2.4C106,168.5,106,168.4,106,168.3z"/>
	<line class="st4" x1="109.2" y1="145.9" x2="125.5" y2="133.9"/>
	<line class="st4" x1="89.2" y1="130" x2="97.2" y2="111.4"/>
	<line class="st4" x1="63.8" y1="126.2" x2="61.5" y2="106.1"/>
	<line class="st4" x1="40" y1="135.6" x2="27.9" y2="119.4"/>
	<line class="st4" x1="24" y1="155.7" x2="5.5" y2="147.6"/>
	<line class="st4" x1="20.2" y1="181.1" x2="0.1" y2="183.4"/>
	<line class="st4" x1="29.6" y1="204.9" x2="13.4" y2="216.9"/>
	<line class="st4" x1="49.7" y1="220.9" x2="41.7" y2="239.4"/>
	<line class="st4" x1="118.6" y1="169.8" x2="138.7" y2="167.5"/>
	
		<rect x="94.2" y="217.9" transform="matrix(0.8035 -0.5953 0.5953 0.8035 -114.7392 109.7309)" class="st4" width="29.3" height="21.5"/>
	<line class="st4" x1="95.1" y1="234.6" x2="118.6" y2="217.2"/>
	<line class="st4" x1="99.4" y1="240.6" x2="123" y2="223.2"/>
	<path class="st4" d="M106.3,243.9c3.6,4.9,10.6,5.9,15.5,2.3c4.9-3.6,5.9-10.6,2.3-15.5"/>
</g>
<g>
	<path class="st1" d="M22.1,400.8H32l4.5-0.3l0.3-2.1l2.4-0.3v10.1l-2.4-0.3l-0.3-2.1l-4.5-0.3H10.4l-4.5,0.3l-0.3,2.1l-2.4,0.3
		v-22.4l5.1,0.3L8,388.5l-2.1,0.3l-0.3,4.8v7.2h14v-12.3l2.7,0.3l-0.3,4.8L22.1,400.8L22.1,400.8z"/>
	<path class="st1" d="M35.5,361.7l-1.2-0.3v0.3c1.6,1,2.9,2.3,3.9,4.1c1.1,1.8,1.6,3.6,1.6,5.3c0,2.4-0.8,4.3-2.5,5.6
		c-1.4,1.2-3.6,1.7-6.5,1.7H20l-4.5,0.3l-0.3,2.1l-2.4,0.3l-0.3-7.7l7.1,0.3H30c2.1,0,3.5-0.2,4.3-0.5c1.2-0.6,1.8-1.8,1.8-3.7
		c0-2.6-1.4-5.2-4.2-7.8H19.7l-4.2,0.3l-0.3,2.1l-2.4,0.3l-0.3-7.7l7.1,0.3H32l4.5-0.3l0.3-2.1l2.4-0.3l0.3,7.4L35.5,361.7
		L35.5,361.7z"/>
	<path class="st1" d="M16.5,340.2l1.2,0.3v-0.3c-1.6-1-2.9-2.3-3.9-4.1c-1.1-1.8-1.6-3.6-1.6-5.3c0-2.4,0.8-4.3,2.5-5.6
		c1.4-1.2,3.6-1.7,6.5-1.7H32l4.5-0.3l0.3-2.1l2.4-0.3v10.1l-2.4-0.3l-0.3-2.1l-4.5-0.3H22c-2.1,0-3.6,0.2-4.3,0.5
		c-1.2,0.6-1.8,1.8-1.8,3.7c0,1.4,0.4,2.8,1.3,4.3c0.6,0.9,1.5,2.1,2.9,3.5h12l4.5-0.3l0.3-2.1l2.4-0.3v10.1l-2.4-0.3l-0.3-2.1
		L32,345H19.7l-4.2,0.3l-0.3,2.1l-2.4,0.3l-0.3-7.4L16.5,340.2L16.5,340.2z"/>
	<path class="st1" d="M26.2,307.6H32l4.5-0.3l0.3-1.5l2.4-0.3v9.5l-2.4-0.3l-0.3-2.1l-4.5-0.3H7.7l-4.2,0.3l-0.3,2.1L0.8,315
		l-0.3-7.7l7.1,0.3H25v-1.1l-9.5-8.9l-0.3,2.1l-2.4,0.3v-7.8l2.4,0.3l0.3,1.5l8.4,8.2l12.6-10.9l0.3-2.1l2.4-0.3v7l-13,10.6V307.6z"
		/>
</g>
<g>
	<path class="st1" d="M270.4,123.4h-4.3l0.1-0.9l0.8-0.1l0.1-1.7v-8.3l-0.1-1.7l-0.8-0.1l-0.1-0.9h4.6c1.3,0,2.2,0.2,2.7,0.5
		c0.9,0.6,1.3,1.4,1.3,2.5c0,0.9-0.3,1.6-0.9,2.3c-0.6,0.6-1.3,1-2.1,1.3v0c1,0.1,1.8,0.5,2.5,1.1c0.7,0.7,1.1,1.5,1.1,2.5
		c0,1.3-0.5,2.2-1.5,2.9c-0.4,0.3-1,0.5-1.7,0.6C271.8,123.4,271.2,123.4,270.4,123.4z M268.9,115.9h0.3c0.7,0,1.1,0,1.3,0
		c0.5-0.1,0.9-0.2,1.2-0.5c0.7-0.5,1.1-1.3,1.1-2.4c0-1-0.4-1.7-1.2-2.1c-0.5-0.2-1.4-0.3-2.5-0.3h-0.2V115.9z M269.1,122.4l1.3,0.1
		c1,0,1.8-0.3,2.3-0.8s0.8-1.2,0.8-1.9c0-0.9-0.4-1.7-1.3-2.3c-0.8-0.5-1.6-0.8-2.6-0.8h-0.6v3.9L269.1,122.4z"/>
	<path class="st1" d="M285.9,118.2h-6.3c0,1.1,0.2,1.9,0.4,2.4c0.3,0.5,0.6,1,1.2,1.3c0.5,0.3,1.1,0.5,1.7,0.5c1.1,0,2.1-0.3,3-0.8
		v1.4c-1.1,0.5-2.2,0.7-3.2,0.7c-1.5,0-2.8-0.5-3.7-1.6c-0.9-1-1.3-2.3-1.3-3.8c0-1.4,0.4-2.6,1.2-3.6c0.8-1,1.9-1.6,3.3-1.6
		c1.3,0,2.2,0.5,2.9,1.5c0.5,0.8,0.8,1.9,0.8,3.3V118.2z M279.8,117.2h4.2c0-0.9-0.1-1.6-0.3-2.1c-0.3-0.7-0.9-1.1-1.7-1.1
		c-0.7,0-1.3,0.4-1.7,1.1C280,115.7,279.8,116.4,279.8,117.2z"/>
	<path class="st1" d="M295.2,113.2l-0.1,2.5l-0.9-0.1l-0.1-0.9c-0.6,0-1.1,0.1-1.6,0.4c-0.3,0.2-0.7,0.5-1.2,1v4.6l0.1,1.7l1,0.1
		l0.1,0.9h-4.1l0.1-0.9l0.8-0.1l0.1-1.7V116l-0.1-1.6l-0.8-0.1l-0.1-0.9l2.8-0.1v1.5l-0.1,0.5h0.1c0.3-0.6,0.8-1.1,1.4-1.5
		c0.6-0.4,1.2-0.6,1.9-0.6C294.9,113.1,295.1,113.2,295.2,113.2z"/>
	<path class="st1" d="M299.9,114.8l-0.1,0.5h0.1c0.4-0.6,0.9-1.1,1.6-1.5c0.7-0.4,1.4-0.6,2-0.6c0.9,0,1.6,0.3,2.1,0.9
		c0.4,0.5,0.7,1.4,0.7,2.5v4.1l0.1,1.7l0.8,0.1l0.1,0.9h-3.9l0.1-0.9l0.8-0.1l0.1-1.7v-3.8c0-0.8-0.1-1.4-0.2-1.7
		c-0.2-0.5-0.7-0.7-1.4-0.7c-0.5,0-1.1,0.2-1.6,0.5c-0.3,0.2-0.8,0.6-1.3,1.1v4.6l0.1,1.7l0.8,0.1l0.1,0.9h-3.9l0.1-0.9l0.8-0.1
		l0.1-1.7V116l-0.1-1.6l-0.8-0.1l-0.1-0.9l2.8-0.1V114.8z"/>
	<path class="st1" d="M310.6,120.7v-9.3l-0.1-1.6l-0.8-0.1l-0.1-0.9l3-0.1l-0.1,2.7v3.4l-0.1,0.5h0.1c0.4-0.6,0.9-1.1,1.6-1.5
		c0.7-0.4,1.4-0.6,2-0.6c0.9,0,1.6,0.3,2.1,0.9c0.4,0.5,0.7,1.4,0.7,2.5v4.1l0.1,1.7l0.8,0.1l0.1,0.9H316l0.1-0.9l0.8-0.1l0.1-1.7
		v-3.8c0-0.8-0.1-1.4-0.2-1.7c-0.2-0.5-0.7-0.7-1.4-0.7c-0.5,0-1.1,0.2-1.6,0.5c-0.3,0.2-0.8,0.6-1.3,1.1v4.6l0.1,1.7l0.8,0.1
		l0.1,0.9h-3.9l0.1-0.9l0.8-0.1L310.6,120.7z"/>
	<path class="st1" d="M327.2,117.5h0.2v-0.6c0-1.1-0.1-1.8-0.3-2.1c-0.3-0.4-0.8-0.7-1.6-0.7c-0.7,0-1.4,0.3-2,0.8l-0.1,1h-0.9
		l-0.1-1.9c1.2-0.6,2.4-0.9,3.6-0.9c1,0,1.9,0.3,2.5,0.8c0.4,0.3,0.6,0.7,0.7,1.1c0.1,0.2,0.1,0.7,0.1,1.3v4c0,1.4,0.3,2.1,0.9,2.1
		c0.1,0,0.3,0,0.5-0.1l0.1,1c-0.4,0.2-0.8,0.2-1.2,0.2c-0.9,0-1.5-0.5-1.7-1.6c-1.1,1.1-2.1,1.6-3.3,1.6c-0.8,0-1.5-0.3-2.1-0.8
		c-0.6-0.5-0.9-1.2-0.9-2c0-1.3,0.7-2.3,2-2.9C324.4,117.6,325.6,117.5,327.2,117.5z M327.5,121.5v-3.2h-0.3c-2.4,0-3.6,0.7-3.6,2.2
		c0,0.5,0.2,1,0.5,1.3c0.3,0.3,0.8,0.5,1.3,0.5C326,122.4,326.7,122.1,327.5,121.5z"/>
	<path class="st1" d="M339.5,113.2l-0.1,2.5l-0.9-0.1l-0.1-0.9c-0.6,0-1.1,0.1-1.6,0.4c-0.3,0.2-0.7,0.5-1.2,1v4.6l0.1,1.7l1,0.1
		l0.1,0.9h-4.1l0.1-0.9l0.8-0.1l0.1-1.7V116l-0.1-1.6l-0.8-0.1l-0.1-0.9l2.8-0.1v1.5l-0.1,0.5h0.1c0.3-0.6,0.8-1.1,1.4-1.5
		c0.6-0.4,1.2-0.6,1.9-0.6C339.1,113.1,339.3,113.2,339.5,113.2z"/>
	<path class="st1" d="M348.6,123.5l0.1-2h-0.1c-0.9,1.4-2.1,2.1-3.6,2.1c-1.3,0-2.2-0.5-2.9-1.6c-0.5-0.9-0.8-2-0.8-3.4
		c0-1.5,0.3-2.7,1-3.7c0.8-1.2,1.8-1.8,3.3-1.8c1.2,0,2.2,0.5,3,1.4h0.1l-0.1-1.4v-1.7l-0.1-1.6l-0.8-0.1l-0.1-0.9l3-0.1l-0.1,2.7
		v9.3l0.1,1.7l0.8,0.1l0.1,0.9L348.6,123.5z M348.6,120.6v-5.1c-0.8-0.8-1.8-1.1-2.8-1.1c-0.9,0-1.6,0.4-2,1.3
		c-0.3,0.7-0.5,1.5-0.5,2.5c0,2.7,0.8,4,2.4,4C346.8,122.3,347.8,121.7,348.6,120.6z"/>
	<path class="st1" d="M283,139.6v3.9l0.1,1.7l0.8,0.1l0.1,0.9h-3.9l0.1-0.9l0.8-0.1l0.1-1.7v-8.3l-0.1-1.7l-0.8-0.1l-0.1-0.9h3.9
		l-0.1,0.9l-0.8,0.1l-0.1,1.7v3.4h6.7v-3.4l-0.1-1.7l-0.8-0.1l-0.1-0.9h3.9l-0.1,0.9l-0.8,0.1l-0.1,1.7v8.3l0.1,1.7l0.8,0.1l0.1,0.9
		h-3.9l0.1-0.9l0.8-0.1l0.1-1.7v-3.9H283z"/>
	<path class="st1" d="M303.2,141h-6.3c0,1.1,0.2,1.9,0.4,2.4c0.3,0.5,0.6,1,1.2,1.3c0.5,0.3,1.1,0.5,1.7,0.5c1.1,0,2.1-0.3,3-0.8
		v1.4c-1.1,0.5-2.2,0.7-3.2,0.7c-1.5,0-2.8-0.5-3.7-1.6c-0.9-1-1.3-2.3-1.3-3.8c0-1.4,0.4-2.6,1.2-3.6c0.8-1,1.9-1.6,3.3-1.6
		c1.3,0,2.2,0.5,2.9,1.5c0.5,0.8,0.8,1.9,0.8,3.3V141z M297,140h4.2c0-0.9-0.1-1.6-0.3-2.1c-0.3-0.7-0.9-1.1-1.7-1.1
		c-0.7,0-1.3,0.4-1.7,1.1C297.2,138.5,297,139.2,297,140z"/>
	<path class="st1" d="M312.9,144.8l0.1-0.5h-0.1c-0.4,0.6-0.9,1.1-1.6,1.5c-0.7,0.4-1.4,0.6-2,0.6c-0.9,0-1.6-0.3-2.1-1
		c-0.4-0.5-0.7-1.4-0.7-2.5v-4.1l-0.1-1.7l-0.8-0.1l-0.1-0.9l3-0.1l-0.1,2.7v4c0,0.8,0.1,1.3,0.2,1.7c0.2,0.5,0.7,0.7,1.4,0.7
		c1,0,2-0.5,3-1.6v-4.7l-0.1-1.6l-0.8-0.1l-0.1-0.9l3-0.1l-0.1,2.7v4.7l0.1,1.7l0.8,0.1l0.1,0.9l-2.8,0.1V144.8z"/>
	<path class="st1" d="M318.5,145.7l0.1-2.2l0.9,0.1l0.1,1c0.8,0.6,1.6,0.9,2.4,0.9c0.5,0,1-0.1,1.4-0.4c0.4-0.3,0.6-0.7,0.6-1.2
		c0-0.5-0.2-0.9-0.7-1.3c-0.2-0.2-0.7-0.4-1.4-0.6c-1.1-0.4-1.8-0.8-2.3-1.1c-0.7-0.6-1.1-1.3-1.1-2.2c0-0.8,0.4-1.5,1.1-2.1
		c0.7-0.5,1.4-0.7,2.3-0.7c1.1,0,2.1,0.2,3.1,0.6l-0.1,2.2l-0.9-0.1l-0.1-1c-0.6-0.5-1.3-0.7-2-0.7c-0.4,0-0.8,0.1-1.2,0.4
		c-0.4,0.3-0.6,0.7-0.6,1.1c0,0.5,0.2,0.8,0.6,1.1c0.3,0.2,0.9,0.5,2,1c1,0.4,1.7,0.7,2,1c0.6,0.5,0.9,1.1,0.9,2
		c0,1-0.4,1.8-1.3,2.3c-0.7,0.5-1.6,0.7-2.6,0.7C320.7,146.5,319.5,146.2,318.5,145.7z"/>
	<path class="st1" d="M331.1,134.2v9.3l0.1,1.7l0.8,0.1l0.1,0.9h-3.9l0.1-0.9l0.8-0.1l0.1-1.7v-9.3l-0.1-1.6l-0.8-0.1l-0.1-0.9
		l3-0.1L331.1,134.2z"/>
	<path class="st1" d="M342.8,141h-6.3c0,1.1,0.2,1.9,0.4,2.4c0.3,0.5,0.6,1,1.2,1.3c0.5,0.3,1.1,0.5,1.7,0.5c1.1,0,2.1-0.3,3-0.8
		v1.4c-1.1,0.5-2.2,0.7-3.2,0.7c-1.5,0-2.8-0.5-3.7-1.6c-0.9-1-1.3-2.3-1.3-3.8c0-1.4,0.4-2.6,1.2-3.6c0.8-1,1.9-1.6,3.3-1.6
		c1.3,0,2.2,0.5,2.9,1.5c0.5,0.8,0.8,1.9,0.8,3.3V141z M336.6,140h4.2c0-0.9-0.1-1.6-0.3-2.1c-0.3-0.7-0.9-1.1-1.7-1.1
		c-0.7,0-1.3,0.4-1.7,1.1C336.8,138.5,336.7,139.2,336.6,140z"/>
	<path class="st1" d="M352.1,136l-0.1,2.5l-0.9-0.1l-0.1-0.9c-0.6,0-1.1,0.1-1.6,0.4c-0.3,0.2-0.7,0.5-1.2,1v4.6l0.1,1.7l1,0.1
		l0.1,0.9h-4.1l0.1-0.9l0.8-0.1l0.1-1.7v-4.7l-0.1-1.6l-0.8-0.1l-0.1-0.9l2.8-0.1v1.5l-0.1,0.5h0.1c0.3-0.6,0.8-1.1,1.4-1.5
		c0.6-0.4,1.2-0.6,1.9-0.6C351.8,135.9,352,136,352.1,136z"/>
</g>
<g>
	<path class="st1" d="M83.4,346.6h-9.1l0.1-0.9l0.8-0.1l0.1-1.7v-8.3l-0.1-1.7l-0.8-0.1l-0.1-0.9H83l-0.1,2.1l-0.9-0.1l-0.1-0.9
		l-2-0.1h-2.8v5.2H82l-0.1,1l-2.3-0.1h-2.4v4l0.1,1.7h3.1l1.9-0.1l0.1-1l0.9-0.1L83.4,346.6z"/>
	<path class="st1" d="M88.1,339.2v4.7l0.1,1.7l0.8,0.1l0.1,0.9h-3.9l0.1-0.9l0.8-0.1l0.1-1.7v-4.7l-0.1-1.6l-0.8-0.1l-0.1-0.9l3-0.1
		L88.1,339.2z M86.2,334.7v-1.8h1.8v1.8H86.2z"/>
	<path class="st1" d="M94.5,338l-0.1,0.5h0.1c0.4-0.6,0.9-1.1,1.6-1.5c0.7-0.4,1.4-0.6,2-0.6c0.9,0,1.6,0.3,2.1,0.9
		c0.4,0.5,0.7,1.4,0.7,2.5v4.1l0.1,1.7l0.8,0.1l0.1,0.9H98l0.1-0.9l0.8-0.1l0.1-1.7v-3.8c0-0.8-0.1-1.4-0.2-1.7
		c-0.2-0.5-0.7-0.7-1.4-0.7c-0.5,0-1.1,0.2-1.6,0.5c-0.3,0.2-0.8,0.6-1.3,1.1v4.6l0.1,1.7l0.8,0.1l0.1,0.9h-3.9l0.1-0.9l0.8-0.1
		l0.1-1.7v-4.7l-0.1-1.6l-0.8-0.1l-0.1-0.9l2.8-0.1V338z"/>
	<path class="st1" d="M114.5,343.9v-10.1h-2.4l-1.5,0.1l-0.1,1l-0.9,0.1l-0.1-2.2h11.9l-0.1,2.2l-0.9-0.1l-0.1-1l-1.5-0.1h-2.4v10.1
		l0.1,1.7l0.8,0.1l0.1,0.9h-3.9l0.1-0.9l0.8-0.1L114.5,343.9z"/>
	<path class="st1" d="M129.8,341.4h-6.3c0,1.1,0.2,1.9,0.4,2.4c0.3,0.5,0.6,1,1.2,1.3c0.5,0.3,1.1,0.5,1.7,0.5c1.1,0,2.1-0.3,3-0.8
		v1.4c-1.1,0.5-2.2,0.7-3.2,0.7c-1.5,0-2.8-0.5-3.7-1.6c-0.9-1-1.3-2.3-1.3-3.8c0-1.4,0.4-2.6,1.2-3.6c0.8-1,1.9-1.6,3.3-1.6
		c1.3,0,2.2,0.5,2.9,1.5c0.5,0.8,0.8,1.9,0.8,3.3V341.4z M123.7,340.5h4.2c0-0.9-0.1-1.6-0.3-2.1c-0.3-0.7-0.9-1.1-1.7-1.1
		c-0.7,0-1.3,0.4-1.7,1.1C123.9,338.9,123.7,339.6,123.7,340.5z"/>
	<path class="st1" d="M137.6,340.7h0.2v-0.6c0-1.1-0.1-1.8-0.3-2.1c-0.3-0.4-0.8-0.7-1.6-0.7c-0.7,0-1.4,0.3-2,0.8l-0.1,1h-0.9
		l-0.1-1.9c1.2-0.6,2.4-0.9,3.6-0.9c1,0,1.9,0.3,2.5,0.8c0.4,0.3,0.6,0.7,0.7,1.1c0.1,0.2,0.1,0.7,0.1,1.3v4c0,1.4,0.3,2.1,0.9,2.1
		c0.1,0,0.3,0,0.5-0.1l0.1,1c-0.4,0.2-0.8,0.2-1.2,0.2c-0.9,0-1.5-0.5-1.7-1.6c-1.1,1.1-2.1,1.6-3.3,1.6c-0.8,0-1.5-0.3-2.1-0.8
		c-0.6-0.5-0.9-1.2-0.9-2c0-1.3,0.7-2.3,2-2.8C134.8,340.9,135.9,340.7,137.6,340.7z M137.8,344.8v-3.2h-0.3c-2.4,0-3.6,0.7-3.6,2.2
		c0,0.5,0.2,1,0.5,1.3c0.3,0.3,0.8,0.5,1.3,0.5C136.4,345.6,137.1,345.3,137.8,344.8z"/>
	<path class="st1" d="M146,338l-0.1,0.5h0.1c1-1.4,2.2-2.1,3.5-2.1c0.7,0,1.3,0.2,1.7,0.6s0.8,0.9,0.8,1.5h0.1
		c1-1.4,2.2-2.1,3.5-2.1c0.8,0,1.4,0.2,1.9,0.7c0.5,0.5,0.8,1.4,0.8,2.5v4.4l0.1,1.7l0.8,0.1l0.1,0.9h-3.9l0.1-0.9l0.8-0.1l0.1-1.7
		v-4c0-0.7-0.1-1.2-0.2-1.5c-0.2-0.5-0.6-0.7-1.2-0.7c-1,0-2,0.5-3,1.6v4.6l0.1,1.7l0.8,0.1l0.1,0.9h-3.9l0.1-0.9l0.8-0.1l0.1-1.7
		v-4c0-0.7-0.1-1.2-0.2-1.5c-0.2-0.5-0.6-0.7-1.2-0.7c-1,0-2,0.5-3,1.6v4.6l0.1,1.7l0.8,0.1l0.1,0.9h-3.9l0.1-0.9l0.8-0.1l0.1-1.7
		v-4.7l-0.1-1.6l-0.8-0.1l-0.1-0.9l2.8-0.1V338z"/>
	<path class="st1" d="M78,367.8h1.1c1.4,0,2.3,0.1,2.8,0.2c1,0.3,1.5,1,1.5,2.1c0,1.1-0.6,1.9-1.7,2.5c-0.9,0.5-1.9,0.7-3.1,0.7
		c-1,0-2-0.1-2.8-0.4c-1.2-0.4-1.8-1-1.8-1.7c0-0.9,0.7-1.6,2-2.1c-0.7-0.3-1-0.8-1-1.3c0-0.4,0.2-0.8,0.6-1.1
		c0.2-0.2,0.6-0.4,1.2-0.7c-0.6-0.3-1.1-0.7-1.5-1.3c-0.4-0.6-0.6-1.2-0.6-1.9c0-1.1,0.3-1.9,1-2.6s1.6-1,2.9-1
		c0.7,0,1.3,0.1,1.9,0.4l3.5-0.3l-0.6,1.4l-2-0.3c0.6,0.7,0.9,1.5,0.9,2.4c0,1-0.3,1.8-1,2.5c-0.6,0.7-1.6,1-2.8,1
		c-0.4,0-0.8,0-1-0.1c-0.5,0.3-0.8,0.7-0.8,1.1c0,0.3,0.2,0.5,0.5,0.6C77.3,367.8,77.5,367.8,78,367.8z M79.4,369.2h-2.7
		c-0.6,0.5-0.9,1-0.9,1.7c0,1,0.9,1.5,2.7,1.5c0.8,0,1.4-0.1,2-0.4c0.7-0.4,1.1-0.9,1.1-1.6c0-0.5-0.2-0.8-0.7-1
		C80.7,369.3,80.2,369.2,79.4,369.2z M78.4,359.9c-0.7,0-1.2,0.3-1.5,0.9c-0.3,0.5-0.4,1.1-0.4,1.8c0,0.7,0.1,1.4,0.4,1.8
		c0.3,0.6,0.9,0.9,1.6,0.9c0.9,0,1.4-0.5,1.7-1.5c0.1-0.4,0.2-0.8,0.2-1.3C80.4,360.8,79.7,359.9,78.4,359.9z"/>
	<path class="st1" d="M93.8,364.2h-6.3c0,1.1,0.2,1.9,0.4,2.4c0.3,0.5,0.6,1,1.2,1.3c0.5,0.3,1.1,0.5,1.7,0.5c1.1,0,2.1-0.3,3-0.8
		v1.4c-1.1,0.5-2.2,0.7-3.2,0.7c-1.5,0-2.8-0.5-3.7-1.6c-0.9-1-1.3-2.3-1.3-3.8c0-1.4,0.4-2.6,1.2-3.6c0.8-1,1.9-1.6,3.3-1.6
		c1.3,0,2.2,0.5,2.9,1.5c0.5,0.8,0.8,1.9,0.8,3.3V364.2z M87.7,363.3h4.2c0-0.9-0.1-1.6-0.3-2.1c-0.3-0.7-0.9-1.1-1.7-1.1
		c-0.7,0-1.3,0.4-1.7,1.1C87.9,361.7,87.7,362.4,87.7,363.3z"/>
	<path class="st1" d="M99.2,369.5l-2.3-7.7l-0.6-1.5l-0.6-0.1l-0.1-0.9h3.5l-0.1,0.9l-0.8,0.1l1.9,6.4l2.8-7.4h1l2.6,7.4l2.1-6.4
		l-0.8-0.1l-0.1-0.9h2.7l-0.1,0.9l-0.6,0.1l-0.8,1.9l-2.4,7.2h-0.9l-2.7-7.7l-2.9,7.7H99.2z"/>
	<path class="st1" d="M115,362v4.7l0.1,1.7l0.8,0.1l0.1,0.9h-3.9l0.1-0.9l0.8-0.1l0.1-1.7V362l-0.1-1.6l-0.8-0.1l-0.1-0.9l3-0.1
		L115,362z M113.1,357.5v-1.8h1.8v1.8H113.1z"/>
	<path class="st1" d="M121.4,360.8l-0.1,0.5h0.1c0.4-0.6,0.9-1.1,1.6-1.5c0.7-0.4,1.4-0.6,2-0.6c0.9,0,1.6,0.3,2.1,0.9
		c0.4,0.5,0.7,1.4,0.7,2.5v4.1l0.1,1.7l0.8,0.1l0.1,0.9h-3.9l0.1-0.9l0.8-0.1l0.1-1.7v-3.8c0-0.8-0.1-1.4-0.2-1.7
		c-0.2-0.5-0.7-0.7-1.4-0.7c-0.5,0-1.1,0.2-1.6,0.5c-0.3,0.2-0.8,0.6-1.3,1.1v4.6l0.1,1.7l0.8,0.1l0.1,0.9h-3.9l0.1-0.9l0.8-0.1
		l0.1-1.7V362l-0.1-1.6l-0.8-0.1l-0.1-0.9l2.8-0.1V360.8z"/>
	<path class="st1" d="M133.9,360.8l-0.1,0.5h0.1c0.4-0.6,0.9-1.1,1.6-1.5c0.7-0.4,1.4-0.6,2-0.6c0.9,0,1.6,0.3,2.1,0.9
		c0.4,0.5,0.7,1.4,0.7,2.5v4.1l0.1,1.7l0.8,0.1l0.1,0.9h-3.9l0.1-0.9l0.8-0.1l0.1-1.7v-3.8c0-0.8-0.1-1.4-0.2-1.7
		c-0.2-0.5-0.7-0.7-1.4-0.7c-0.5,0-1.1,0.2-1.6,0.5c-0.3,0.2-0.8,0.6-1.3,1.1v4.6l0.1,1.7l0.8,0.1l0.1,0.9H131l0.1-0.9l0.8-0.1
		l0.1-1.7V362l-0.1-1.6l-0.8-0.1l-0.1-0.9l2.8-0.1V360.8z"/>
	<path class="st1" d="M144.7,366.1v-5.7h-1.3v-1h1.3v-1.8l1.8-0.5v2.3h2.6v1h-2.6v5.9c0,0.7,0.1,1.2,0.2,1.6
		c0.3,0.5,0.7,0.8,1.2,0.8c0.3,0,0.7-0.1,1.1-0.3v1c-0.4,0.2-0.9,0.3-1.4,0.3c-1.1,0-1.8-0.3-2.4-1c-0.3-0.3-0.4-0.7-0.5-1.2
		C144.7,367.2,144.7,366.7,144.7,366.1z"/>
	<path class="st1" d="M77.1,384.8v4.7l0.1,1.7l0.8,0.1l0.1,0.9h-3.9l0.1-0.9l0.8-0.1l0.1-1.7v-4.7l-0.1-1.6l-0.8-0.1l-0.1-0.9l3-0.1
		L77.1,384.8z M75.3,380.3v-1.8h1.8v1.8H75.3z"/>
	<path class="st1" d="M83.5,383.6l-0.1,0.5h0.1c1-1.4,2.2-2.1,3.5-2.1c0.7,0,1.3,0.2,1.7,0.6s0.8,0.9,0.8,1.5h0.1
		c1-1.4,2.2-2.1,3.5-2.1c0.8,0,1.4,0.2,1.9,0.7c0.5,0.5,0.8,1.4,0.8,2.5v4.4l0.1,1.7l0.8,0.1l0.1,0.9h-3.9l0.1-0.9l0.8-0.1l0.1-1.7
		v-4c0-0.7-0.1-1.2-0.2-1.5c-0.2-0.5-0.6-0.7-1.2-0.7c-1,0-2,0.5-3,1.6v4.6l0.1,1.7l0.8,0.1l0.1,0.9h-3.9l0.1-0.9l0.8-0.1l0.1-1.7
		v-4c0-0.7-0.1-1.2-0.2-1.5c-0.2-0.5-0.6-0.7-1.2-0.7c-1,0-2,0.5-3,1.6v4.6l0.1,1.7l0.8,0.1l0.1,0.9h-3.9l0.1-0.9l0.8-0.1l0.1-1.7
		v-4.7l-0.1-1.6l-0.8-0.1l-0.1-0.9l2.8-0.1V383.6z"/>
	<path class="st1" d="M102,383.6l-0.1,0.5h0.1c1-1.4,2.2-2.1,3.5-2.1c0.7,0,1.3,0.2,1.7,0.6s0.8,0.9,0.8,1.5h0.1
		c1-1.4,2.2-2.1,3.5-2.1c0.8,0,1.4,0.2,1.9,0.7c0.5,0.5,0.8,1.4,0.8,2.5v4.4l0.1,1.7l0.8,0.1l0.1,0.9h-3.9l0.1-0.9l0.8-0.1l0.1-1.7
		v-4c0-0.7-0.1-1.2-0.2-1.5c-0.2-0.5-0.6-0.7-1.2-0.7c-1,0-2,0.5-3,1.6v4.6l0.1,1.7l0.8,0.1l0.1,0.9h-3.9l0.1-0.9l0.8-0.1l0.1-1.7
		v-4c0-0.7-0.1-1.2-0.2-1.5c-0.2-0.5-0.6-0.7-1.2-0.7c-1,0-2,0.5-3,1.6v4.6l0.1,1.7l0.8,0.1l0.1,0.9h-3.9l0.1-0.9l0.8-0.1l0.1-1.7
		v-4.7l-0.1-1.6l-0.8-0.1l-0.1-0.9l2.8-0.1V383.6z"/>
	<path class="st1" d="M125.7,387h-6.3c0,1.1,0.2,1.9,0.4,2.4s0.6,1,1.2,1.3c0.5,0.3,1.1,0.5,1.7,0.5c1.1,0,2.1-0.3,3-0.8v1.4
		c-1.1,0.5-2.2,0.7-3.2,0.7c-1.5,0-2.8-0.5-3.7-1.6c-0.9-1-1.3-2.3-1.3-3.8c0-1.4,0.4-2.6,1.2-3.6c0.8-1,1.9-1.6,3.3-1.6
		c1.3,0,2.2,0.5,2.9,1.5c0.5,0.8,0.8,1.9,0.8,3.3V387z M119.5,386.1h4.2c0-0.9-0.1-1.6-0.3-2.1c-0.3-0.7-0.9-1.1-1.7-1.1
		c-0.7,0-1.3,0.4-1.7,1.1C119.7,384.5,119.5,385.2,119.5,386.1z"/>
	<path class="st1" d="M135,382.1l-0.1,2.5l-0.9-0.1l-0.1-0.9c-0.6,0-1.1,0.1-1.6,0.4c-0.3,0.2-0.7,0.5-1.2,1v4.6l0.1,1.7l1,0.1
		l0.1,0.9h-4.1l0.1-0.9l0.8-0.1l0.1-1.7v-4.7l-0.1-1.6l-0.8-0.1l-0.1-0.9l2.8-0.1v1.5L131,384h0.1c0.3-0.6,0.8-1.1,1.4-1.5
		c0.6-0.4,1.2-0.6,1.9-0.6C134.6,381.9,134.8,382,135,382.1z"/>
</g>
<g>
	<path class="st1" d="M10,466l-0.1,3.1v8l0.1,1.7l2,0.1l0.1,0.9H5.9L6,479l2-0.1l0.1-1.7v-9.7l-2.1-0.1l-0.1-0.9L10,466z"/>
	<path class="st1" d="M26.1,466.2v1.2l-3.8,5.9c-1.4,2.6-2.1,4.8-2.1,6.6l-2.2,0.2c0.4-2.2,1.2-4.3,2.5-6.2l4.1-6.1h-7.3v-1.7H26.1z
		"/>
	<path class="st1" d="M29,479.9v-2.3h2.3v2.3H29z"/>
	<path class="st1" d="M46.7,480.2c-2,0-3.6-0.7-4.8-2.1c-1.1-1.2-1.6-2.9-1.6-5.1c0-2.1,0.5-3.8,1.5-5c1.2-1.5,2.8-2.2,4.9-2.2
		c2,0,3.5,0.7,4.7,2c1.1,1.2,1.6,3,1.6,5.2c0,2.1-0.5,3.8-1.5,5C50.4,479.5,48.7,480.2,46.7,480.2z M46.7,479.3
		c1.5,0,2.7-0.7,3.5-2.1c0.6-1.1,0.9-2.5,0.9-4.2c0-1.7-0.3-3.1-0.9-4.2c-0.8-1.4-1.9-2.1-3.5-2.1c-1.5,0-2.7,0.7-3.5,2.1
		c-0.6,1.1-0.9,2.5-0.9,4.2c0,1.7,0.3,3.1,0.9,4.2C44,478.6,45.1,479.3,46.7,479.3z"/>
	<path class="st1" d="M58.3,474.9v2.2l0.1,1.7L59,479l0.1,0.9h-3.6l0.1-0.9l0.8-0.1l0.1-1.7v-9.3l-0.1-1.6l-0.8-0.1l-0.1-0.9l3-0.1
		l-0.1,2.7v6.6h0.4l3.4-3.6l-0.8-0.1l-0.1-0.9h3l-0.1,0.9l-0.6,0.1l-3.1,3.2l4.2,4.8l0.8,0.1l0.1,0.9h-2.7l-4-5H58.3z"/>
	<path class="st1" d="M68.1,476.5v-5.7h-1.3v-1h1.3V468l1.8-0.5v2.3h2.6v1h-2.6v5.9c0,0.7,0.1,1.2,0.2,1.6c0.3,0.5,0.7,0.8,1.2,0.8
		c0.3,0,0.7-0.1,1.1-0.3v1c-0.4,0.2-0.9,0.3-1.4,0.3c-1.1,0-1.8-0.3-2.4-1c-0.3-0.3-0.4-0.7-0.5-1.2
		C68.1,477.6,68.1,477.2,68.1,476.5z"/>
	<path class="st1" d="M79.3,469.6c1.5,0,2.7,0.5,3.6,1.5c0.8,0.9,1.2,2.2,1.2,3.8s-0.4,2.8-1.2,3.8c-0.9,1-2.1,1.5-3.6,1.5
		c-1.5,0-2.7-0.5-3.6-1.5c-0.8-0.9-1.2-2.2-1.2-3.8s0.4-2.8,1.2-3.8C76.6,470.1,77.8,469.6,79.3,469.6z M79.3,470.5
		c-1,0-1.7,0.5-2.2,1.5c-0.4,0.8-0.6,1.8-0.6,2.8c0,1.1,0.2,2,0.6,2.8c0.5,1,1.3,1.5,2.2,1.5c1,0,1.7-0.5,2.2-1.5
		c0.4-0.8,0.6-1.8,0.6-2.8c0-1.1-0.2-2-0.6-2.8C81,471,80.3,470.5,79.3,470.5z"/>
	<path class="st1" d="M88.9,478.8l-0.2,1.3H87l0.1-2.7v-9.4l-0.1-1.6l-0.8-0.1l-0.1-0.9l3-0.1l-0.1,2.7v2.2l-0.1,1.7H89
		c0.9-1.4,2.1-2.1,3.6-2.1c1.3,0,2.2,0.5,2.9,1.6c0.5,0.9,0.8,2,0.8,3.4c0,1.5-0.3,2.7-1,3.7c-0.8,1.2-1.8,1.8-3.3,1.8
		C90.8,480.1,89.8,479.7,88.9,478.8L88.9,478.8z M89,472.6v5.1c0.8,0.8,1.8,1.1,2.8,1.1c0.9,0,1.6-0.4,2-1.3
		c0.3-0.7,0.5-1.5,0.5-2.5c0-2.7-0.8-4-2.4-4C90.7,471,89.8,471.5,89,472.6z"/>
	<path class="st1" d="M106.8,474.6h-6.3c0,1.1,0.2,1.9,0.4,2.4c0.3,0.5,0.6,1,1.2,1.3c0.5,0.3,1.1,0.5,1.7,0.5c1.1,0,2.1-0.3,3-0.8
		v1.4c-1.1,0.5-2.2,0.7-3.2,0.7c-1.5,0-2.8-0.5-3.7-1.6c-0.9-1-1.3-2.3-1.3-3.8c0-1.4,0.4-2.6,1.2-3.6c0.8-1,1.9-1.6,3.3-1.6
		c1.3,0,2.2,0.5,2.9,1.5c0.5,0.8,0.8,1.9,0.8,3.3V474.6z M100.7,473.7h4.2c0-0.9-0.1-1.6-0.3-2.1c-0.3-0.7-0.9-1.1-1.7-1.1
		c-0.7,0-1.3,0.4-1.7,1.1C100.9,472.2,100.7,472.9,100.7,473.7z"/>
	<path class="st1" d="M116.2,469.7l-0.1,2.5l-0.9-0.1l-0.1-0.9c-0.6,0-1.1,0.1-1.6,0.4c-0.3,0.2-0.7,0.5-1.2,1v4.6l0.1,1.7l1,0.1
		l0.1,0.9h-4.1l0.1-0.9l0.8-0.1l0.1-1.7v-4.7l-0.1-1.6l-0.8-0.1l-0.1-0.9l2.8-0.1v1.5l-0.1,0.5h0.1c0.3-0.6,0.8-1.1,1.4-1.5
		c0.6-0.4,1.2-0.6,1.9-0.6C115.8,469.6,116,469.6,116.2,469.7z"/>
</g>
<g>
	<path class="st1" d="M430.1,121h4.2l1.7-0.1l0.1-0.8l0.9-0.1v3.9l-0.9-0.1L436,123l-1.7-0.1H426l-1.7,0.1l-0.1,0.8l-0.9,0.1V120
		l0.9,0.1l0.1,0.8l1.7,0.1H430.1l-5.7-4.9l-0.1,0.9l-0.9,0.1v-3.2l0.9,0.1l0.1,0.6l1.9,1.7l3.4,2.9l6.4-5.8l0.1-0.7l0.9-0.1v3.9
		l-0.9-0.1l-0.1-0.7L430.1,121z"/>
	<path class="st1" d="M435.6,103.6l-0.5-0.1v0.1c0.6,0.4,1.1,0.9,1.5,1.6c0.4,0.7,0.6,1.4,0.6,2c0,0.9-0.3,1.6-1,2.1
		c-0.5,0.4-1.4,0.7-2.5,0.7h-4.1l-1.7,0.1l-0.1,0.8l-0.9,0.1l-0.1-3l2.7,0.1h4c0.8,0,1.3-0.1,1.7-0.2c0.5-0.2,0.7-0.7,0.7-1.4
		c0-1-0.5-2-1.6-3h-4.7l-1.6,0.1l-0.1,0.8l-0.9,0.1l-0.1-3l2.7,0.1h4.7l1.7-0.1l0.1-0.8l0.9-0.1l0.1,2.8H435.6z"/>
	<path class="st1" d="M426.9,91.5l2.5,0.1l-0.1,0.9l-0.9,0.1c0,0.6,0.1,1.1,0.4,1.6c0.2,0.3,0.5,0.7,1,1.2h4.6l1.7-0.1l0.1-1
		l0.9-0.1v4.1l-0.9-0.1l-0.1-0.8l-1.7-0.1h-4.7l-1.6,0.1l-0.1,0.8l-0.9,0.1l-0.1-2.8h1.5l0.5,0.1v-0.1c-0.6-0.3-1.1-0.8-1.5-1.4
		c-0.4-0.6-0.6-1.2-0.6-1.9C426.7,91.9,426.8,91.7,426.9,91.5z"/>
	<path class="st1" d="M436.5,89.4l-2.2-0.1l0.1-0.9l1-0.1c0.6-0.8,0.9-1.6,0.9-2.4c0-0.5-0.1-1-0.4-1.4c-0.3-0.4-0.7-0.6-1.2-0.6
		c-0.5,0-0.9,0.2-1.3,0.7c-0.2,0.2-0.4,0.7-0.6,1.4c-0.4,1.1-0.8,1.8-1.1,2.3c-0.6,0.7-1.3,1.1-2.2,1.1c-0.8,0-1.5-0.4-2.1-1.1
		c-0.5-0.7-0.7-1.4-0.7-2.3c0-1.1,0.2-2.1,0.6-3.1l2.2,0.1l-0.1,0.9l-1,0.1c-0.5,0.6-0.7,1.3-0.7,2c0,0.4,0.1,0.8,0.4,1.2
		c0.3,0.4,0.7,0.6,1.1,0.6c0.5,0,0.8-0.2,1.1-0.6c0.2-0.3,0.5-0.9,1-2c0.4-1,0.7-1.7,1-2c0.5-0.6,1.1-0.9,2-0.9c1,0,1.8,0.4,2.3,1.3
		c0.5,0.7,0.7,1.6,0.7,2.6C437.3,87.3,437,88.4,436.5,89.4z"/>
	<path class="st1" d="M431.1,74.5v-0.2h-0.6c-1.1,0-1.8,0.1-2.1,0.3c-0.4,0.3-0.7,0.8-0.7,1.6c0,0.7,0.3,1.4,0.8,2l1,0.1v0.9
		l-1.9,0.1c-0.6-1.2-0.9-2.4-0.9-3.6c0-1,0.3-1.9,0.8-2.5c0.3-0.4,0.7-0.6,1.1-0.7c0.2-0.1,0.7-0.1,1.3-0.1h4c1.4,0,2.1-0.3,2.1-0.9
		c0-0.1,0-0.3-0.1-0.5l1-0.1c0.2,0.4,0.2,0.8,0.2,1.2c0,0.9-0.5,1.5-1.6,1.7c1.1,1.1,1.6,2.1,1.6,3.3c0,0.8-0.3,1.5-0.8,2.1
		s-1.2,0.9-2,0.9c-1.3,0-2.3-0.7-2.9-2C431.3,77.3,431.1,76.2,431.1,74.5z M435.2,74.3H432v0.3c0,2.4,0.7,3.6,2.2,3.6
		c0.5,0,1-0.2,1.3-0.5c0.3-0.3,0.5-0.8,0.5-1.3C436,75.7,435.7,75,435.2,74.3z"/>
	<path class="st1" d="M431.1,63.8v-0.2h-0.6c-1.1,0-1.8,0.1-2.1,0.3c-0.4,0.3-0.7,0.8-0.7,1.6c0,0.7,0.3,1.4,0.8,2l1,0.1v0.9
		l-1.9,0.1c-0.6-1.2-0.9-2.4-0.9-3.6c0-1,0.3-1.9,0.8-2.5c0.3-0.4,0.7-0.6,1.1-0.7c0.2-0.1,0.7-0.1,1.3-0.1h4c1.4,0,2.1-0.3,2.1-0.9
		c0-0.1,0-0.3-0.1-0.5l1-0.1c0.2,0.4,0.2,0.8,0.2,1.2c0,0.9-0.5,1.5-1.6,1.7c1.1,1.1,1.6,2.1,1.6,3.3c0,0.8-0.3,1.5-0.8,2.1
		s-1.2,0.9-2,0.9c-1.3,0-2.3-0.7-2.9-2C431.3,66.7,431.1,65.5,431.1,63.8z M435.2,63.6H432v0.3c0,2.4,0.7,3.6,2.2,3.6
		c0.5,0,1-0.2,1.3-0.5c0.3-0.3,0.5-0.8,0.5-1.3C436,65,435.7,64.4,435.2,63.6z"/>
	<path class="st1" d="M425,55.5h9.3l1.7-0.1l0.1-0.8l0.9-0.1v3.9l-0.9-0.1l-0.1-0.8l-1.7-0.1H425l-1.6,0.1l-0.1,0.8l-0.9,0.1l-0.1-3
		L425,55.5z"/>
	<path class="st1" d="M437,41.6v4.3l-0.9-0.1L436,45l-1.7-0.1H426l-1.7,0.1l-0.1,0.8l-0.9,0.1v-4.6c0-1.3,0.2-2.2,0.5-2.7
		c0.6-0.9,1.4-1.3,2.5-1.3c0.9,0,1.6,0.3,2.3,0.9c0.6,0.6,1,1.3,1.3,2.1h0c0.1-1,0.5-1.8,1.1-2.5c0.7-0.7,1.5-1.1,2.5-1.1
		c1.3,0,2.2,0.5,2.9,1.5c0.3,0.4,0.5,1,0.6,1.7C437,40.2,437,40.8,437,41.6z M429.5,43.1v-0.3c0-0.7,0-1.1,0-1.3
		c-0.1-0.5-0.2-0.9-0.5-1.2c-0.5-0.7-1.3-1.1-2.4-1.1c-1,0-1.7,0.4-2.1,1.2c-0.2,0.5-0.3,1.4-0.3,2.5v0.2H429.5z M436,42.9l0.1-1.3
		c0-1-0.3-1.8-0.8-2.3c-0.5-0.5-1.2-0.8-1.9-0.8c-0.9,0-1.7,0.4-2.3,1.3c-0.5,0.8-0.8,1.6-0.8,2.6v0.6h3.9L436,42.9z"/>
	<path class="st1" d="M431.8,26.1v6.3c1.1,0,1.9-0.2,2.4-0.4s1-0.6,1.3-1.2c0.3-0.5,0.5-1.1,0.5-1.7c0-1.1-0.3-2.1-0.8-3h1.4
		c0.5,1.1,0.7,2.2,0.7,3.2c0,1.5-0.5,2.8-1.6,3.7c-1,0.9-2.3,1.3-3.8,1.3c-1.4,0-2.6-0.4-3.6-1.2c-1-0.8-1.6-1.9-1.6-3.3
		c0-1.3,0.5-2.2,1.5-2.9c0.8-0.5,1.9-0.8,3.3-0.8H431.8z M430.9,32.2V28c-0.9,0-1.6,0.1-2.1,0.3c-0.7,0.3-1.1,0.9-1.1,1.7
		c0,0.7,0.4,1.3,1.1,1.7C429.4,32,430.1,32.2,430.9,32.2z"/>
	<path class="st1" d="M426.9,16.8l2.5,0.1l-0.1,0.9l-0.9,0.1c0,0.6,0.1,1.1,0.4,1.6c0.2,0.3,0.5,0.7,1,1.2h4.6l1.7-0.1l0.1-1
		l0.9-0.1v4.1l-0.9-0.1l-0.1-0.8l-1.7-0.1h-4.7l-1.6,0.1l-0.1,0.8l-0.9,0.1l-0.1-2.8h1.5l0.5,0.1v-0.1c-0.6-0.3-1.1-0.8-1.5-1.4
		c-0.4-0.6-0.6-1.2-0.6-1.9C426.7,17.1,426.8,16.9,426.9,16.8z"/>
	<path class="st1" d="M428.4,12.1l0.5,0.1v-0.1c-0.6-0.4-1.1-0.9-1.5-1.6c-0.4-0.7-0.6-1.4-0.6-2c0-0.9,0.3-1.6,0.9-2.1
		c0.5-0.4,1.4-0.7,2.5-0.7h4.1l1.7-0.1l0.1-0.8l0.9-0.1v3.9l-0.9-0.1L436,7.6l-1.7-0.1h-3.8c-0.8,0-1.4,0.1-1.7,0.2
		c-0.5,0.2-0.7,0.7-0.7,1.4c0,0.5,0.2,1.1,0.5,1.6c0.2,0.3,0.6,0.8,1.1,1.3h4.6L436,12l0.1-0.8L437,11v3.9l-0.9-0.1L436,14l-1.7-0.1
		h-4.7L428,14l-0.1,0.8l-0.9,0.1l-0.1-2.8H428.4z"/>
</g>
</svg>
