<?xml version="1.0" encoding="utf-8"?>
<!-- Generator: Adobe Illustrator 26.5.0, SVG Export Plug-In . SVG Version: 6.00 Build 0)  -->
<svg version="1.0" id="Ebene_1" xmlns="http://www.w3.org/2000/svg" xmlns:xlink="http://www.w3.org/1999/xlink" x="0px" y="0px"
	 viewBox="0 0 212.6 212.6" enable-background="new 0 0 212.6 212.6" xml:space="preserve">
<g>
	<polygon fill="#005092" points="0,0 0,212.6 212.6,212.6 212.6,0 0,0 	"/>
	<path fill="#FFFFFF" d="M99,76.3V63.1h0h-9.5v13.2c0,0-0.1,6.4-5.3,6.4c-5.2,0-5.2-6.4-5.2-6.4V63.1v0l-19.7,0V60
		c0,0-0.6-5.4,2.3-8.3c2.9-2.9,7.9-2.8,7.9-2.8h75.3l0-0.1v35.2l0,0l0,0h-3.1c0,0-5.5,0.6-5.5-5.5c0-6.2,0-7.3,0-7.3s0.2-3.7-2-5.9
		c-2.2-2.2-7.4-2.3-7.4-2.3h-19.6h0v27l0,0h8.9l0-0.1V68.5v-0.3h3.1c0,0,7.7-0.5,7.7,6c0,6.5,0,16,0,16l0,0h27.1v0c0,0,0-7.4,0-11
		c0-2.9,2.5,0.6,2.5,0.6l6.4,10.4l0,0h10.2l0,0l-10.3-16.9l0,0l8.4-10.1h0l-9.5,0h0l-5.2,6.3c0,0-2.6,3.3-2.6,0.3c0-3,0-26.4,0-26.4
		l0,0H62.3c0,0-4.2-0.2-8.2,3.8c-4,4-3.7,10.7-3.7,10.7v5.3H29.7l0-35.1h153.2v112H29.7V68.1h20.7h0v22h-0.1h8.9v0l0-22h10.2v10.4
		c0,0,0.1,12.1,14.7,12.1C98.8,90.7,99,76.3,99,76.3L99,76.3L99,76.3z M102,76.5c0,0-0.7,17.4-17.9,17.4S66.3,78.5,66.3,78.5v-7.3h0
		h-4v22v0h-15v-22h0H32.8v65.6h147V31h-147l0,28.9h14.5v-2.2c0,0-0.2-7.6,4.7-12.5c4.9-4.9,10.4-5.1,10.4-5.1h91.5l3.1,0l0,23.8v0
		l3.3-4l0,0h17.5l-11.2,13.5l0,0l12,19.8l0,0h-17.5l0,0l-4.1-6.8l0,0v6.8h-33.2h0c0,0,0-15.9,0-19.1c0-3.4-4.6-2.9-4.6-2.9v22l0,0
		h-15.1h0V60h0h22.7c0,0,6.2-0.3,9.5,3.1c3.3,3.3,3,8.2,3,8.2s0,4.3,0,7.3c0,3,2.4,2.4,2.4,2.4V52h0H69.4c0,0-4-0.2-5.7,1.5
		c-1.6,1.7-1.4,4.3-1.4,4.3V60v0H82v0.3v16c0,0-0.2,3.3,2.1,3.3c2.3,0,2.2-3.3,2.2-3.3v-16l0-0.3H102h0v16.3V76.5L102,76.5L102,76.5
		z"/>
</g>
</svg>
