<?xml version="1.0" encoding="utf-8"?>
<!-- Generator: Adobe Illustrator 27.2.0, SVG Export Plug-In . SVG Version: 6.00 Build 0)  -->
<svg version="1.1" id="Ebene_1" xmlns="http://www.w3.org/2000/svg" xmlns:xlink="http://www.w3.org/1999/xlink" x="0px" y="0px"
	 viewBox="0 0 1280 800" style="enable-background:new 0 0 1280 800;" xml:space="preserve">
<style type="text/css">
	.st0{fill:#E5F1FF;}
	.st1{fill:#79B540;}
	.st2{fill:#4B9641;}
</style>
<rect x="0" y="0" class="st0" width="1280" height="800"/>
<path class="st1" d="M1280,692.5v-83.7c-68,17.7-127.8,43.6-179.9,73.1C1156.5,678.9,1216.6,681.8,1280,692.5z"/>
<path class="st2" d="M1100.1,569.9c-73.1,3.8-140.1,17.2-200.1,36c36.2,4.3,73.6,11.5,112.4,22c83.5,22.6,172.9,60.6,267.6,118.9
	V580.5C1216.6,569.8,1156.5,566.9,1100.1,569.9z"/>
<path class="st1" d="M1012.4,627.8c-38.8-10.5-76.2-17.7-112.4-22c-47.6-5.7-92.9-6.5-135.8-3.5c24.1,7.7,48.3,16.4,72.5,26
	c37.6,15,75.2,32.5,112.6,52.8c59,32.1,117.3,71.2,173.4,118.7H1280v-53.2C1185.3,688.5,1095.9,650.4,1012.4,627.8z"/>
<path class="st2" d="M949.3,681.3c-37.4-20.3-75.1-37.8-112.6-52.8c-24.2-9.7-48.5-18.3-72.5-26c-167-53.5-327.2-61.7-446.9-56.1
	c81.6,15,170.9,43.9,260.3,95.4c34.1,19.6,68.1,42.6,101.8,69.3c32.6,25.9,64.9,55.4,96.3,88.9h70.2h276.9
	C1066.6,752.4,1008.3,713.3,949.3,681.3z"/>
<path class="st1" d="M679.3,711.1c-33.6-26.7-67.7-49.7-101.8-69.3c-89.3-51.5-178.7-80.4-260.3-95.4
	c-53.2-9.8-103.1-13.7-147.6-14.2c16.2,6.8,32.4,14.3,48.7,22.5c72.5,36.5,145.7,87.1,215.5,156.5c26.9,26.7,53.2,56.2,78.9,88.8
	h53.6h209.3C744.2,766.5,712,737,679.3,711.1z"/>
<path class="st2" d="M433.9,711.2c-69.8-69.4-143.1-120-215.5-156.5c-16.3-8.2-32.6-15.7-48.7-22.5C111.2,507.4,53.9,491.3,0,481.2
	v66V800h122h194.3h196.4C487.1,767.4,460.8,737.9,433.9,711.2z"/>
</svg>
