<?xml version="1.0" encoding="utf-8"?>
<!-- Generator: Adobe Illustrator 28.2.0, SVG Export Plug-In . SVG Version: 6.00 Build 0)  -->
<svg version="1.1" id="Ebene_1" xmlns="http://www.w3.org/2000/svg" xmlns:xlink="http://www.w3.org/1999/xlink" x="0px" y="0px"
	 viewBox="0 0 440.7 485" style="enable-background:new 0 0 440.7 485;" xml:space="preserve">
<style type="text/css">
	.st0{fill:none;stroke:#FFFFFF;stroke-width:1.4173;stroke-miterlimit:10;}
	.st1{fill:#FFFFFF;}
	.st2{fill:#6CBF55;}
	.st3{fill:none;stroke:#FFFFFF;stroke-width:2.8251;stroke-miterlimit:10;}
	.st4{fill:none;stroke:#FFFFFF;stroke-width:2.5675;stroke-miterlimit:10;}
	.st5{clip-path:url(#SVGID_00000085946646737075948710000006210183982691765892_);}
	.st6{clip-path:url(#SVGID_00000029018953736551606330000003622646982189893545_);}
	.st7{clip-path:url(#SVGID_00000143612831793590121300000008207595554223892864_);}
</style>
<path class="st0" d="M360.4,191h-17.9c-2.6,0-4.6,2.1-4.6,4.6V206c0,3.9-4.5,6-7.5,3.6L308.3,192c-0.8-0.7-1.8-1-2.9-1h-81
	c-2.6,0-4.6-2.1-4.6-4.6V63.7c0-2.6,2.1-4.6,4.6-4.6h136c2.6,0,4.6,2.1,4.6,4.6v122.7C365,189,363,191,360.4,191z"/>
<g>
	<path class="st1" d="M65.7,24.2L65,27.3h0.7c6.7-9.2,14.4-13.8,23-13.8c4.4,0,8.2,1.2,11.4,3.7c3.2,2.5,5,5.8,5.4,10.1h0.7
		c6.5-9.2,14.2-13.8,22.9-13.8c5.1,0,9.3,1.6,12.4,4.7c3.5,3.5,5.2,8.9,5.2,16.3V63l0.7,11.2l5.2,0.7l0.7,6H128l0.7-6l5.2-0.7
		l0.7-11.2V36.6c0-4.6-0.4-7.8-1.1-9.6c-1.2-3.1-3.9-4.6-7.8-4.6c-6.6,0-13.2,3.5-19.6,10.4V63l0.7,11.2l5.2,0.7l0.7,6H87.6l0.7-6
		l5.2-0.7L94.3,63V36.6c0-4.6-0.4-7.7-1.1-9.6c-1.2-3.1-3.8-4.6-7.7-4.6c-6.5,0-13.1,3.5-19.8,10.4V63l0.7,11.2l5.2,0.7l0.7,6H47.1
		l0.7-6l5.2-0.7L53.8,63V32.2L53,21.7L47.8,21l-0.7-6l18.6-0.7V24.2z"/>
	<path class="st1" d="M220.5,46.5h-40.9c0.2,7,1.1,12.2,2.8,15.8c1.7,3.6,4.2,6.4,7.6,8.6c3.4,2.2,7,3.3,10.8,3.3
		c7.1,0,13.7-1.7,19.6-5.2v8.9c-7.2,3-14.1,4.5-20.7,4.5c-10,0-18.1-3.4-24.1-10.2c-5.8-6.5-8.7-14.9-8.7-25
		c0-9.4,2.5-17.2,7.6-23.5c5.4-6.8,12.6-10.2,21.7-10.2c8.3,0,14.7,3.3,19.1,9.9c3.4,5.1,5.1,12.3,5.1,21.6L220.5,46.5L220.5,46.5z
		 M180.4,40.5h27.5c0-6.1-0.6-10.7-1.9-13.8c-2-4.8-5.6-7.2-10.8-7.2c-4.8,0-8.6,2.4-11.3,7.2C181.7,30.6,180.5,35.2,180.4,40.5z"/>
	<path class="st1" d="M290.4,46.5h-40.9c0.2,7,1.1,12.2,2.8,15.8c1.7,3.6,4.2,6.4,7.6,8.6c3.4,2.2,7,3.3,10.8,3.3
		c7.1,0,13.7-1.7,19.6-5.2v8.9c-7.2,3-14.1,4.5-20.7,4.5c-10,0-18.1-3.4-24.1-10.2c-5.8-6.5-8.7-14.9-8.7-25
		c0-9.4,2.5-17.2,7.6-23.5c5.4-6.8,12.6-10.2,21.7-10.2c8.3,0,14.7,3.3,19.1,9.9c3.4,5.1,5.1,12.3,5.1,21.6v1.5L290.4,46.5
		L290.4,46.5z M250.3,40.5h27.5c0-6.1-0.6-10.7-1.9-13.8c-2-4.8-5.6-7.2-10.8-7.2c-4.8,0-8.6,2.4-11.3,7.2
		C251.6,30.6,250.5,35.2,250.3,40.5z"/>
	<path class="st1" d="M315,58.8v-37h-8.3V15h8.3V3l12-3v15h16.8v6.7H327v38.6c0,4.6,0.5,8.1,1.6,10.3c1.7,3.3,4.3,5,7.8,5
		c2.2,0,4.6-0.6,7.3-1.9v6.7c-2.7,1.2-5.8,1.9-9.3,1.9c-6.9,0-12.1-2.2-15.7-6.6c-1.7-2.2-2.9-4.8-3.4-8.1
		C315.2,66,315,63.1,315,58.8z"/>
</g>
<g>
	<path class="st2" d="M271,331.1l-11.8-12.9c-17.5,11.7-34.9,17.5-52.2,17.5c-17.1,0-31.7-5.8-43.8-17.3
		c-12.1-11.6-18.1-25.9-18.1-43.1c0-13.4,4.6-25.2,13.9-35.5c8.6-9.6,19.6-16.4,33.2-20.3c-9.6-14.4-14.4-27.3-14.4-38.8
		c0-11.1,4.4-20.8,13.1-29c7.9-7.4,17.9-11.1,30.1-11.1c12.9,0,23.2,3.1,31.1,9.3c8.7,6.7,13.1,16.3,13.1,28.8
		c0,10.6-4.5,20.3-13.4,29c-7.7,7.5-17.2,13-28.5,16.4l45.7,67.1c8.4-10.3,12.8-25.4,13.1-45.2l-13.1-1.5l-1.5-12.6h45.7l-1.5,12.6
		l-12.3,1.5c-2.1,19.7-9.5,38-22.4,55l14.4,16.2l12.6,1.5l1.5,12.3H271V331.1z M251.7,308.5l-53.9-78.1
		c-18.7,7.7-28.1,20.5-28.1,38.3c0,14.1,5.1,26.1,15.2,36.2c9.3,9.3,21.1,13.9,35.3,13.9C232.3,318.8,242.7,315.4,251.7,308.5z
		 M216,211.9l0.8,1.5c16.8-8.1,25.2-20.7,25.2-38c0-14.9-6.3-22.4-19-22.4c-6,0-10.9,2.3-14.8,6.8c-3.9,4.5-5.8,9.9-5.8,16.1
		c0,5.5,1.5,11.7,4.6,18.5C210,200.2,213,206.1,216,211.9z"/>
</g>
<g>
	<path class="st2" d="M271,331.1l-11.8-12.9c-17.5,11.7-34.9,17.5-52.2,17.5c-17.1,0-31.7-5.8-43.8-17.3
		c-12.1-11.6-18.1-25.9-18.1-43.1c0-13.4,4.6-25.2,13.9-35.5c8.6-9.6,19.6-16.4,33.2-20.3c-9.6-14.4-14.4-27.3-14.4-38.8
		c0-11.1,4.4-20.8,13.1-29c7.9-7.4,17.9-11.1,30.1-11.1c12.9,0,23.2,3.1,31.1,9.3c8.7,6.7,13.1,16.3,13.1,28.8
		c0,10.6-4.5,20.3-13.4,29c-7.7,7.5-17.2,13-28.5,16.4l45.7,67.1c8.4-10.3,12.8-25.4,13.1-45.2l-13.1-1.5l-1.5-12.6h45.7l-1.5,12.6
		l-12.3,1.5c-2.1,19.7-9.5,38-22.4,55l14.4,16.2l12.6,1.5l1.5,12.3H271V331.1z M251.7,308.5l-53.9-78.1
		c-18.7,7.7-28.1,20.5-28.1,38.3c0,14.1,5.1,26.1,15.2,36.2c9.3,9.3,21.1,13.9,35.3,13.9C232.3,318.8,242.7,315.4,251.7,308.5z
		 M216,211.9l0.8,1.5c16.8-8.1,25.2-20.7,25.2-38c0-14.9-6.3-22.4-19-22.4c-6,0-10.9,2.3-14.8,6.8c-3.9,4.5-5.8,9.9-5.8,16.1
		c0,5.5,1.5,11.7,4.6,18.5C210,200.2,213,206.1,216,211.9z"/>
</g>
<g>
	<path class="st1" d="M231.8,435.5h-56.3c0.2,9.6,1.5,16.8,3.9,21.7c2.3,4.9,5.8,8.9,10.5,11.9s9.6,4.5,14.9,4.5
		c9.8,0,18.8-2.4,27-7.2v12.3c-9.9,4.1-19.5,6.2-28.6,6.2c-13.8,0-24.9-4.7-33.2-14c-8-9-12-20.5-12-34.4c0-12.9,3.5-23.7,10.4-32.3
		c7.4-9.4,17.4-14,30-14c11.4,0,20.2,4.6,26.4,13.7c4.7,7,7,16.9,7,29.8L231.8,435.5L231.8,435.5z M176.5,427.3h37.8
		c0-8.4-0.9-14.8-2.6-19c-2.7-6.6-7.7-9.9-14.9-9.9c-6.6,0-11.8,3.3-15.6,9.9C178.3,413.7,176.7,420,176.5,427.3z"/>
	<path class="st1" d="M301.8,429.4h2.1v-5.6c0-10.2-1-16.6-3.1-19.3c-3-4-7.6-6-14-6c-6.7,0-12.7,2.5-18,7.4l-1,9.1h-8.2l-1-16.9
		c11.2-5.1,22-7.7,32.5-7.7c9.4,0,16.8,2.5,22.2,7.4c3.2,2.9,5.2,6.2,6.2,10.1c0.6,2.2,0.9,6.1,0.9,11.8V456c0,12.7,2.7,19,8.2,19
		c1,0,2.5-0.3,4.3-1l1,9.2c-3.9,1.4-7.5,2.1-10.8,2.1c-8.2,0-13.3-4.8-15.4-14.5c-9.5,9.7-19.3,14.5-29.6,14.5
		c-7.3,0-13.5-2.4-18.7-7.3c-5.1-4.8-7.7-10.9-7.7-18.2c0-11.8,5.9-20.3,17.8-25.7C275.9,430.9,286.7,429.4,301.8,429.4z M303.8,466
		v-28.4h-2.4c-21.6,0-32.3,6.5-32.3,19.5c0,4.8,1.5,8.8,4.6,11.9s7.1,4.7,12,4.7C290.8,473.7,296.8,471.1,303.8,466z"/>
	<path class="st1" d="M361.7,452.5v-51h-11.5v-9.2h11.5v-16.6l16.4-4.1v20.7h23.1v9.2h-23.1v53.2c0,6.4,0.7,11.1,2.2,14.2
		c2.3,4.6,5.9,6.8,10.8,6.8c3,0,6.3-0.9,10.1-2.6v9.2c-3.8,1.7-8,2.6-12.8,2.6c-9.5,0-16.7-3-21.6-9.1c-2.4-3-3.9-6.7-4.6-11.1
		C361.8,462.5,361.7,458.4,361.7,452.5z"/>
</g>
<path class="st0" d="M49.6,414.7h17.9c2.6,0,4.6,2.1,4.6,4.6v10.4c0,3.9,4.5,6,7.5,3.6l22.1-17.6c0.8-0.7,1.8-1,2.9-1h81
	c2.6,0,4.6-2.1,4.6-4.6V287.3c0-2.6-2.1-4.6-4.6-4.6h-136c-2.6,0-4.6,2.1-4.6,4.6V410C45,412.6,47,414.7,49.6,414.7z"/>
<g>
	<g>
		<path class="st3" d="M438.7,203.1l-33.9,61c-16.2,29.1-40.1,46.7-53.4,39.3l0,0c-13.3-7.4-11-37,5.2-66.1l33.9-61L438.7,203.1z"/>
		<path class="st3" d="M374.5,205.7c0,0,7.8,15.3,20.5,15.3s20.6-1.8,30.9,5.6"/>
		<g>
			<line class="st3" x1="351.5" y1="303.4" x2="311.3" y2="375.7"/>
			<line class="st3" x1="285" y1="361.1" x2="337.5" y2="390.4"/>
		</g>
	</g>
	<circle class="st1" cx="377.3" cy="234" r="3"/>
	<circle class="st1" cx="375.1" cy="277.1" r="3.4"/>
	<circle class="st1" cx="388.2" cy="250.7" r="2.3"/>
	<circle class="st1" cx="369" cy="256.9" r="1.9"/>
	<circle class="st1" cx="404.8" cy="233.3" r="3.8"/>
	<circle class="st1" cx="356.4" cy="289.8" r="3"/>
</g>
<g>
	<path class="st4" d="M106,168.3c-0.2-0.8-0.3-1.6-0.5-2.4c-0.1-0.5-0.3-0.9-0.4-1.4c-0.2-0.5-0.3-1.1-0.5-1.6v-0.1l0,0
		c-1.2-3.3-2.9-6.6-5.1-9.5c-12.3-16.5-35.6-20-52.2-7.8c-16.5,12.3-20,35.6-7.8,52.2c2.2,3,4.8,5.5,7.6,7.7l0,0c0,0,0.1,0,0.1,0.1
		c0.5,0.3,0.9,0.6,1.4,1c0.4,0.3,0.8,0.5,1.2,0.8c0.7,0.4,1.4,0.8,2.1,1.2c0.1,0.1,0.2,0.1,0.4,0.2c0.7,0.4,1.4,0.7,2.2,1.1
		c12.2,5.6,27.7,7.6,36.3,19.1l23.5-17.4c-8.6-11.6-6-27-7.8-40.3c-0.1-0.8-0.2-1.6-0.4-2.4C106,168.5,106,168.4,106,168.3z"/>
	<line class="st4" x1="109.2" y1="145.9" x2="125.5" y2="133.9"/>
	<line class="st4" x1="89.2" y1="130" x2="97.2" y2="111.4"/>
	<line class="st4" x1="63.8" y1="126.2" x2="61.5" y2="106.1"/>
	<line class="st4" x1="40" y1="135.6" x2="27.9" y2="119.4"/>
	<line class="st4" x1="24" y1="155.7" x2="5.5" y2="147.6"/>
	<line class="st4" x1="20.2" y1="181.1" x2="0.1" y2="183.4"/>
	<line class="st4" x1="29.6" y1="204.9" x2="13.4" y2="216.9"/>
	<line class="st4" x1="49.7" y1="220.9" x2="41.7" y2="239.4"/>
	<line class="st4" x1="118.6" y1="169.8" x2="138.7" y2="167.5"/>
	
		<rect x="94.2" y="217.9" transform="matrix(0.8035 -0.5953 0.5953 0.8035 -114.7311 109.7207)" class="st4" width="29.3" height="21.5"/>
	<line class="st4" x1="95.1" y1="234.6" x2="118.6" y2="217.2"/>
	<line class="st4" x1="99.4" y1="240.6" x2="123" y2="223.2"/>
	<path class="st4" d="M106.3,243.9c3.6,4.9,10.6,5.9,15.5,2.3c4.9-3.6,5.9-10.6,2.3-15.5"/>
</g>
<g>
	<path class="st1" d="M128.2,110.1h-4.3l0.1-0.9l0.8-0.1l0.1-1.7v-8.3l-0.1-1.7l-0.8-0.1l-0.1-0.9h4.6c1.3,0,2.2,0.2,2.7,0.5
		c0.9,0.6,1.3,1.4,1.3,2.5c0,0.9-0.3,1.6-0.9,2.3c-0.6,0.6-1.3,1-2.1,1.3l0,0c1,0.1,1.8,0.5,2.5,1.1c0.7,0.7,1.1,1.5,1.1,2.5
		c0,1.3-0.5,2.2-1.5,2.9c-0.4,0.3-1,0.5-1.7,0.6C129.6,110.1,129,110.1,128.2,110.1z M126.7,102.6h0.3c0.7,0,1.1,0,1.3,0
		c0.5-0.1,0.9-0.2,1.2-0.5c0.7-0.5,1.1-1.3,1.1-2.4c0-1-0.4-1.7-1.2-2.1c-0.5-0.2-1.4-0.3-2.5-0.3h-0.2L126.7,102.6L126.7,102.6z
		 M126.9,109.1l1.3,0.1c1,0,1.8-0.3,2.3-0.8s0.8-1.2,0.8-1.9c0-0.9-0.4-1.7-1.3-2.3c-0.8-0.5-1.6-0.8-2.6-0.8h-0.6v3.9L126.9,109.1z
		"/>
	<path class="st1" d="M143.7,104.9h-6.3c0,1.1,0.2,1.9,0.4,2.4c0.3,0.5,0.6,1,1.2,1.3c0.5,0.3,1.1,0.5,1.7,0.5c1.1,0,2.1-0.3,3-0.8
		v1.4c-1.1,0.5-2.2,0.7-3.2,0.7c-1.5,0-2.8-0.5-3.7-1.6c-0.9-1-1.3-2.3-1.3-3.8c0-1.4,0.4-2.6,1.2-3.6c0.8-1,1.9-1.6,3.3-1.6
		c1.3,0,2.2,0.5,2.9,1.5c0.5,0.8,0.8,1.9,0.8,3.3V104.9z M137.6,103.9h4.2c0-0.9-0.1-1.6-0.3-2.1c-0.3-0.7-0.9-1.1-1.7-1.1
		c-0.7,0-1.3,0.4-1.7,1.1C137.8,102.4,137.6,103.1,137.6,103.9z"/>
	<path class="st1" d="M153,99.9l-0.1,2.5l-0.9-0.1l-0.1-0.9c-0.6,0-1.1,0.1-1.6,0.4c-0.3,0.2-0.7,0.5-1.2,1v4.6l0.1,1.7l1,0.1
		l0.1,0.9h-4.1l0.1-0.9l0.8-0.1l0.1-1.7v-4.7l-0.1-1.6l-0.8-0.1l-0.1-0.9l2.8-0.1v1.5l-0.1,0.5h0.1c0.3-0.6,0.8-1.1,1.4-1.5
		s1.2-0.6,1.9-0.6C152.7,99.8,152.9,99.9,153,99.9z"/>
	<path class="st1" d="M157.7,101.5l-0.1,0.5h0.1c0.4-0.6,0.9-1.1,1.6-1.5s1.4-0.6,2-0.6c0.9,0,1.6,0.3,2.1,0.9
		c0.4,0.5,0.7,1.4,0.7,2.5v4.1l0.1,1.7l0.8,0.1l0.1,0.9h-3.9l0.1-0.9l0.8-0.1l0.1-1.7v-3.8c0-0.8-0.1-1.4-0.2-1.7
		c-0.2-0.5-0.7-0.7-1.4-0.7c-0.5,0-1.1,0.2-1.6,0.5c-0.3,0.2-0.8,0.6-1.3,1.1v4.6l0.1,1.7l0.8,0.1l0.1,0.9h-3.9l0.1-0.9l0.8-0.1
		l0.1-1.7v-4.7l-0.1-1.6l-0.8-0.1l-0.1-0.9l2.8-0.1L157.7,101.5L157.7,101.5z"/>
	<path class="st1" d="M168.4,107.4v-9.3l-0.1-1.6l-0.8-0.1l-0.1-0.9l3-0.1l-0.1,2.7v3.4l-0.1,0.5h0.1c0.4-0.6,0.9-1.1,1.6-1.5
		s1.4-0.6,2-0.6c0.9,0,1.6,0.3,2.1,0.9c0.4,0.5,0.7,1.4,0.7,2.5v4.1l0.1,1.7l0.8,0.1l0.1,0.9h-3.9l0.1-0.9l0.8-0.1l0.1-1.7v-3.8
		c0-0.8-0.1-1.4-0.2-1.7c-0.2-0.5-0.7-0.7-1.4-0.7c-0.5,0-1.1,0.2-1.6,0.5c-0.3,0.2-0.8,0.6-1.3,1.1v4.6l0.1,1.7l0.8,0.1l0.1,0.9
		h-3.9l0.1-0.9l0.8-0.1L168.4,107.4z"/>
	<path class="st1" d="M185,104.2h0.2v-0.6c0-1.1-0.1-1.8-0.3-2.1c-0.3-0.4-0.8-0.7-1.6-0.7c-0.7,0-1.4,0.3-2,0.8l-0.1,1h-0.9
		l-0.1-1.9c1.2-0.6,2.4-0.9,3.6-0.9c1,0,1.9,0.3,2.5,0.8c0.4,0.3,0.6,0.7,0.7,1.1c0.1,0.2,0.1,0.7,0.1,1.3v4c0,1.4,0.3,2.1,0.9,2.1
		c0.1,0,0.3,0,0.5-0.1l0.1,1c-0.4,0.2-0.8,0.2-1.2,0.2c-0.9,0-1.5-0.5-1.7-1.6c-1.1,1.1-2.1,1.6-3.3,1.6c-0.8,0-1.5-0.3-2.1-0.8
		s-0.9-1.2-0.9-2c0-1.3,0.7-2.3,2-2.9C182.2,104.3,183.4,104.2,185,104.2z M185.3,108.2V105H185c-2.4,0-3.6,0.7-3.6,2.2
		c0,0.5,0.2,1,0.5,1.3s0.8,0.5,1.3,0.5C183.8,109.1,184.5,108.8,185.3,108.2z"/>
	<path class="st1" d="M197.3,99.9l-0.1,2.5l-0.9-0.1l-0.1-0.9c-0.6,0-1.1,0.1-1.6,0.4c-0.3,0.2-0.7,0.5-1.2,1v4.6l0.1,1.7l1,0.1
		l0.1,0.9h-4.1l0.1-0.9l0.8-0.1l0.1-1.7v-4.7l-0.1-1.6l-0.8-0.1l-0.1-0.9l2.8-0.1v1.5l-0.1,0.5h0.1c0.3-0.6,0.8-1.1,1.4-1.5
		s1.2-0.6,1.9-0.6C196.9,99.8,197.1,99.9,197.3,99.9z"/>
	<path class="st1" d="M206.4,110.2l0.1-2h-0.1c-0.9,1.4-2.1,2.1-3.6,2.1c-1.3,0-2.2-0.5-2.9-1.6c-0.5-0.9-0.8-2-0.8-3.4
		c0-1.5,0.3-2.7,1-3.7c0.8-1.2,1.8-1.8,3.3-1.8c1.2,0,2.2,0.5,3,1.4h0.1l-0.1-1.4v-1.7l-0.1-1.6l-0.8-0.1l-0.1-0.9l3-0.1l-0.1,2.7
		v9.3l0.1,1.7l0.8,0.1l0.1,0.9L206.4,110.2z M206.4,107.3v-5.1c-0.8-0.8-1.8-1.1-2.8-1.1c-0.9,0-1.6,0.4-2,1.3
		c-0.3,0.7-0.5,1.5-0.5,2.5c0,2.7,0.8,4,2.4,4C204.6,109,205.6,108.4,206.4,107.3z"/>
	<path class="st1" d="M140.8,126.3v3.9l0.1,1.7l0.8,0.1l0.1,0.9h-3.9l0.1-0.9l0.8-0.1l0.1-1.7v-8.3l-0.1-1.7l-0.8-0.1l-0.1-0.9h3.9
		l-0.1,0.9l-0.8,0.1l-0.1,1.7v3.4h6.7v-3.4l-0.1-1.7l-0.8-0.1l-0.1-0.9h3.9l-0.1,0.9l-0.8,0.1l-0.1,1.7v8.3l0.1,1.7l0.8,0.1l0.1,0.9
		h-3.9l0.1-0.9l0.8-0.1l0.1-1.7v-3.9H140.8z"/>
	<path class="st1" d="M161,127.7h-6.3c0,1.1,0.2,1.9,0.4,2.4c0.3,0.5,0.6,1,1.2,1.3c0.5,0.3,1.1,0.5,1.7,0.5c1.1,0,2.1-0.3,3-0.8
		v1.4c-1.1,0.5-2.2,0.7-3.2,0.7c-1.5,0-2.8-0.5-3.7-1.6c-0.9-1-1.3-2.3-1.3-3.8c0-1.4,0.4-2.6,1.2-3.6c0.8-1,1.9-1.6,3.3-1.6
		c1.3,0,2.2,0.5,2.9,1.5c0.5,0.8,0.8,1.9,0.8,3.3V127.7z M154.8,126.7h4.2c0-0.9-0.1-1.6-0.3-2.1c-0.3-0.7-0.9-1.1-1.7-1.1
		c-0.7,0-1.3,0.4-1.7,1.1C155,125.2,154.8,125.9,154.8,126.7z"/>
	<path class="st1" d="M170.7,131.5l0.1-0.5h-0.1c-0.4,0.6-0.9,1.1-1.6,1.5s-1.4,0.6-2,0.6c-0.9,0-1.6-0.3-2.1-1
		c-0.4-0.5-0.7-1.4-0.7-2.5v-4.1l-0.1-1.7l-0.8-0.1l-0.1-0.9l3-0.1l-0.1,2.7v4c0,0.8,0.1,1.3,0.2,1.7c0.2,0.5,0.7,0.7,1.4,0.7
		c1,0,2-0.5,3-1.6v-4.7l-0.1-1.6l-0.8-0.1l-0.1-0.9l3-0.1l-0.1,2.7v4.7l0.1,1.7l0.8,0.1l0.1,0.9l-2.8,0.1v-1.5H170.7z"/>
	<path class="st1" d="M176.3,132.4l0.1-2.2l0.9,0.1l0.1,1c0.8,0.6,1.6,0.9,2.4,0.9c0.5,0,1-0.1,1.4-0.4c0.4-0.3,0.6-0.7,0.6-1.2
		s-0.2-0.9-0.7-1.3c-0.2-0.2-0.7-0.4-1.4-0.6c-1.1-0.4-1.8-0.8-2.3-1.1c-0.7-0.6-1.1-1.3-1.1-2.2c0-0.8,0.4-1.5,1.1-2.1
		c0.7-0.5,1.4-0.7,2.3-0.7c1.1,0,2.1,0.2,3.1,0.6l-0.1,2.2l-0.9-0.1l-0.1-1c-0.6-0.5-1.3-0.7-2-0.7c-0.4,0-0.8,0.1-1.2,0.4
		c-0.4,0.3-0.6,0.7-0.6,1.1c0,0.5,0.2,0.8,0.6,1.1c0.3,0.2,0.9,0.5,2,1c1,0.4,1.7,0.7,2,1c0.6,0.5,0.9,1.1,0.9,2
		c0,1-0.4,1.8-1.3,2.3c-0.7,0.5-1.6,0.7-2.6,0.7C178.5,133.2,177.3,132.9,176.3,132.4z"/>
	<path class="st1" d="M188.9,120.9v9.3l0.1,1.7l0.8,0.1l0.1,0.9H186l0.1-0.9l0.8-0.1l0.1-1.7v-9.3l-0.1-1.6l-0.8-0.1l-0.1-0.9l3-0.1
		L188.9,120.9z"/>
	<path class="st1" d="M200.6,127.7h-6.3c0,1.1,0.2,1.9,0.4,2.4c0.3,0.5,0.6,1,1.2,1.3c0.5,0.3,1.1,0.5,1.7,0.5c1.1,0,2.1-0.3,3-0.8
		v1.4c-1.1,0.5-2.2,0.7-3.2,0.7c-1.5,0-2.8-0.5-3.7-1.6c-0.9-1-1.3-2.3-1.3-3.8c0-1.4,0.4-2.6,1.2-3.6c0.8-1,1.9-1.6,3.3-1.6
		c1.3,0,2.2,0.5,2.9,1.5c0.5,0.8,0.8,1.9,0.8,3.3V127.7z M194.4,126.7h4.2c0-0.9-0.1-1.6-0.3-2.1c-0.3-0.7-0.9-1.1-1.7-1.1
		c-0.7,0-1.3,0.4-1.7,1.1C194.6,125.2,194.5,125.9,194.4,126.7z"/>
	<path class="st1" d="M209.9,122.7l-0.1,2.5l-0.9-0.1l-0.1-0.9c-0.6,0-1.1,0.1-1.6,0.4c-0.3,0.2-0.7,0.5-1.2,1v4.6l0.1,1.7l1,0.1
		l0.1,0.9h-4.1l0.1-0.9l0.8-0.1l0.1-1.7v-4.7l-0.1-1.6l-0.8-0.1l-0.1-0.9l2.8-0.1v1.5l-0.1,0.5h0.1c0.3-0.6,0.8-1.1,1.4-1.5
		s1.2-0.6,1.9-0.6C209.6,122.6,209.8,122.7,209.9,122.7z"/>
</g>
<g>
	<path class="st1" d="M9.7,462.7l-0.1,3.8l0,9.9l0.1,2.1l2.5,0.1l0.1,1.1H4.7l0.1-1l2.5-0.1l0.1-2.1l0-12l-2.6-0.1l-0.1-1.1
		L9.7,462.7z"/>
	<path class="st1" d="M29.6,463v1.5l-4.7,7.3c-1.7,3.2-2.6,5.9-2.6,8.1l-2.7,0.2c0.5-2.7,1.5-5.3,3.1-7.7l5.1-7.5h-9v-2.1h10.9V463z
		"/>
	<path class="st1" d="M33.2,479.9v-2.8H36v2.8H33.2z"/>
	<path class="st1" d="M55,480.3c-2.5,0-4.4-0.9-5.9-2.6c-1.4-1.5-2-3.6-2-6.3c0-2.6,0.6-4.7,1.9-6.2c1.5-1.9,3.5-2.7,6-2.7
		c2.5,0,4.3,0.9,5.8,2.5c1.4,1.5,2,3.7,2,6.4c0,2.6-0.6,4.7-1.9,6.2C59.6,479.4,57.5,480.3,55,480.3z M55,479.2
		c1.9,0,3.3-0.9,4.3-2.6c0.7-1.4,1.1-3.1,1.1-5.2s-0.4-3.8-1.1-5.2c-1-1.7-2.3-2.6-4.3-2.6c-1.9,0-3.3,0.9-4.3,2.6
		c-0.7,1.4-1.1,3.1-1.1,5.2c0,2.1,0.4,3.8,1.1,5.2C51.7,478.3,53.1,479.2,55,479.2z"/>
	<path class="st1" d="M69.4,473.7l0,2.7l0.1,2.1l0.7,0.2l0.1,1.1h-4.4l0.1-1.1l1-0.1l0.1-2.1l0-11.5l-0.1-2l-1-0.1l-0.1-1.1l3.7-0.1
		l-0.1,3.3v8.1H70l4.2-4.4l-1-0.1l-0.1-1.1h3.7l-0.1,1.1l-0.7,0.1l-3.8,4l5.2,5.9l1,0.1l0.1,1.1H75l-4.9-6.2H69.4z"/>
	<path class="st1" d="M81.5,475.7v-7h-1.6v-1.2h1.6v-2.2l2.2-0.6v2.8h3.2v1.2h-3.2l0,7.3c0,0.9,0.1,1.5,0.2,2c0.4,0.6,0.9,1,1.5,1
		c0.4,0,0.9-0.1,1.4-0.4v1.2c-0.5,0.2-1.1,0.4-1.7,0.4c-1.4,0-2.2-0.4-3-1.2c-0.4-0.4-0.5-0.9-0.6-1.5
		C81.5,477.1,81.5,476.6,81.5,475.7z"/>
	<path class="st1" d="M95.3,467.2c1.9,0,3.3,0.6,4.4,1.9c1,1.1,1.5,2.7,1.5,4.7s-0.5,3.5-1.5,4.7c-1.1,1.2-2.6,1.9-4.4,1.9
		c-1.9,0-3.3-0.6-4.4-1.9c-1-1.1-1.5-2.7-1.5-4.7c0-2,0.5-3.5,1.5-4.7C92,467.8,93.4,467.2,95.3,467.2z M95.3,468.3
		c-1.2,0-2.1,0.6-2.7,1.9c-0.5,1-0.7,2.2-0.7,3.5c0,1.4,0.2,2.5,0.7,3.5c0.6,1.2,1.6,1.9,2.7,1.9c1.2,0,2.1-0.6,2.7-1.9
		c0.5-1,0.7-2.2,0.7-3.5c0-1.4-0.2-2.5-0.7-3.5C97.4,468.9,96.5,468.3,95.3,468.3z"/>
	<path class="st1" d="M107.1,478.6l-0.2,1.6h-2.1l0.1-3.3v-11.6l-0.1-2l-1-0.1l-0.1-1.1l3.7-0.1l-0.1,3.3v2.7l-0.1,2.1h0.1
		c1.1-1.7,2.6-2.6,4.4-2.6c1.6,0,2.7,0.6,3.6,2c0.6,1.1,1,2.5,1,4.2c0,1.9-0.4,3.3-1.2,4.6c-1,1.5-2.2,2.2-4.1,2.2
		C109.5,480.2,108.3,479.7,107.1,478.6L107.1,478.6z M107.3,470.9v6.3c1,1,2.2,1.4,3.5,1.4c1.1,0,2-0.5,2.5-1.6
		c0.4-0.9,0.6-1.9,0.6-3.1c0-3.3-1-4.9-3-4.9C109.4,468.9,108.3,469.5,107.3,470.9z"/>
	<path class="st1" d="M129.2,473.4h-7.8c0,1.4,0.2,2.3,0.5,3c0.4,0.6,0.7,1.2,1.5,1.6c0.6,0.4,1.4,0.6,2.1,0.6c1.4,0,2.6-0.4,3.7-1
		v1.7c-1.4,0.6-2.7,0.9-4,0.9c-1.9,0-3.5-0.6-4.6-2c-1.1-1.2-1.6-2.8-1.6-4.7c0-1.7,0.5-3.2,1.5-4.4c1-1.2,2.3-2,4.1-2
		c1.6,0,2.7,0.6,3.6,1.9c0.6,1,1,2.3,1,4.1V473.4z M121.7,472.3h5.2c0-1.1-0.1-2-0.4-2.6c-0.4-0.9-1.1-1.4-2.1-1.4
		c-0.9,0-1.6,0.5-2.1,1.4C122,470.4,121.7,471.3,121.7,472.3z"/>
	<path class="st1" d="M140.8,467.3l-0.1,3.1l-1.1-0.1l-0.1-1.1c-0.7,0-1.4,0.1-2,0.5c-0.4,0.2-0.9,0.6-1.5,1.2v5.7l0.1,2.1l1.2,0.1
		l0.1,1.1l-5.1,0l0.1-1.1l1-0.1l0.1-2.1v-5.8l-0.1-2l-1-0.1l-0.1-1.1l3.5-0.1v1.9l-0.1,0.6h0.1c0.4-0.7,1-1.4,1.7-1.9
		c0.7-0.5,1.5-0.7,2.3-0.7C140.4,467.2,140.6,467.2,140.8,467.3z"/>
</g>
<g>
	<path class="st1" d="M428.8,142h5l2-0.1l0.1-0.9l1.1-0.1v4.6l-1.1-0.1l-0.1-0.9l-2-0.1H424l-2,0.1l-0.1,0.9l-1.1,0.1v-4.6l1.1,0.1
		l0.1,0.9l2,0.1H428.8l-6.7-5.8l-0.1,1.1l-1.1,0.1v-3.8l1.1,0.1l0.1,0.7l2.2,2l4,3.4l7.6-6.8l0.1-0.8l1.1-0.1v4.6l-1.1-0.1l-0.1-0.8
		L428.8,142z"/>
	<path class="st1" d="M435.3,121.4l-0.6-0.1v0.1c0.7,0.5,1.3,1.1,1.8,1.9c0.5,0.8,0.7,1.7,0.7,2.4c0,1.1-0.4,1.9-1.2,2.5
		c-0.6,0.5-1.7,0.8-3,0.8h-4.8l-2,0.1l-0.1,0.9l-1.1,0.1l-0.1-3.5l3.2,0.1h4.7c0.9,0,1.5-0.1,2-0.2c0.6-0.2,0.8-0.8,0.8-1.7
		c0-1.2-0.6-2.4-1.9-3.5h-5.5l-1.9,0.1l-0.1,0.9l-1.1,0.1l-0.1-3.5l3.2,0.1h5.5l2-0.1l0.1-0.9l1.1-0.1l0.1,3.3h-1.8V121.4z"/>
	<path class="st1" d="M425,107.1l3,0.1l-0.1,1.1l-1.1,0.1c0,0.7,0.1,1.3,0.5,1.9c0.2,0.4,0.6,0.8,1.2,1.4h5.4l2-0.1l0.1-1.2l1.1-0.1
		v4.8l-1.1-0.1l-0.1-0.9l-2-0.1h-5.5l-1.9,0.1l-0.1,0.9l-1.1,0.1l-0.1-3.3h1.8l0.6,0.1v-0.1c-0.7-0.4-1.3-0.9-1.8-1.7
		c-0.5-0.7-0.7-1.4-0.7-2.2C424.8,107.6,424.9,107.4,425,107.1z"/>
	<path class="st1" d="M436.4,104.7l-2.6-0.1l0.1-1.1l1.2-0.1c0.7-0.9,1.1-1.9,1.1-2.8c0-0.6-0.1-1.2-0.5-1.7s-0.8-0.7-1.4-0.7
		s-1.1,0.2-1.5,0.8c-0.2,0.2-0.5,0.8-0.7,1.7c-0.5,1.3-0.9,2.1-1.3,2.7c-0.7,0.8-1.5,1.3-2.6,1.3c-0.9,0-1.8-0.5-2.5-1.3
		c-0.6-0.8-0.8-1.7-0.8-2.7c0-1.3,0.2-2.5,0.7-3.7l2.6,0.1l-0.1,1.1l-1.2,0.1c-0.6,0.7-0.8,1.5-0.8,2.4c0,0.5,0.1,0.9,0.5,1.4
		c0.4,0.5,0.8,0.7,1.3,0.7c0.6,0,0.9-0.2,1.3-0.7c0.2-0.4,0.6-1.1,1.2-2.4c0.5-1.2,0.8-2,1.2-2.4c0.6-0.7,1.3-1.1,2.4-1.1
		c1.2,0,2.1,0.5,2.7,1.5c0.6,0.8,0.8,1.9,0.8,3.1C437.3,102.2,436.9,103.5,436.4,104.7z"/>
	<path class="st1" d="M430,87.1v-0.2h-0.7c-1.3,0-2.1,0.1-2.5,0.4c-0.5,0.4-0.8,0.9-0.8,1.9c0,0.8,0.4,1.7,0.9,2.4l1.2,0.1v1.1
		l-2.2,0.1c-0.7-1.4-1.1-2.8-1.1-4.2c0-1.2,0.4-2.2,0.9-3c0.4-0.5,0.8-0.7,1.3-0.8c0.2-0.1,0.8-0.1,1.5-0.1h4.7
		c1.7,0,2.5-0.4,2.5-1.1c0-0.1,0-0.4-0.1-0.6l1.2-0.1c0.2,0.5,0.2,0.9,0.2,1.4c0,1.1-0.6,1.8-1.9,2c1.3,1.3,1.9,2.5,1.9,3.9
		c0,0.9-0.4,1.8-0.9,2.5c-0.6,0.7-1.4,1.1-2.4,1.1c-1.5,0-2.7-0.8-3.4-2.4C430.2,90.4,430,89.1,430,87.1z M434.8,86.8H431v0.4
		c0,2.8,0.8,4.2,2.6,4.2c0.6,0,1.2-0.2,1.5-0.6s0.6-0.9,0.6-1.5C435.8,88.5,435.4,87.7,434.8,86.8z"/>
	<path class="st1" d="M430,74.5v-0.2h-0.7c-1.3,0-2.1,0.1-2.5,0.4c-0.5,0.4-0.8,0.9-0.8,1.9c0,0.8,0.4,1.7,0.9,2.4l1.2,0.1V80
		l-2.2,0.1c-0.7-1.4-1.1-2.8-1.1-4.2c0-1.2,0.4-2.2,0.9-3c0.4-0.5,0.8-0.7,1.3-0.8c0.2-0.1,0.8-0.1,1.5-0.1h4.7
		c1.7,0,2.5-0.4,2.5-1.1c0-0.1,0-0.4-0.1-0.6l1.2-0.1c0.2,0.5,0.2,0.9,0.2,1.4c0,1.1-0.6,1.8-1.9,2c1.3,1.3,1.9,2.5,1.9,3.9
		c0,0.9-0.4,1.8-0.9,2.5c-0.6,0.7-1.4,1.1-2.4,1.1c-1.5,0-2.7-0.8-3.4-2.4C430.2,77.9,430,76.5,430,74.5z M434.8,74.2H431v0.4
		c0,2.8,0.8,4.2,2.6,4.2c0.6,0,1.2-0.2,1.5-0.6s0.6-0.9,0.6-1.5C435.8,75.9,435.4,75.2,434.8,74.2z"/>
	<path class="st1" d="M422.8,64.7h11l2-0.1l0.1-0.9l1.1-0.1v4.6l-1.1-0.1l-0.1-0.9l-2-0.1h-11l-1.9,0.1l-0.1,0.9l-1.1,0.1l-0.1-3.5
		L422.8,64.7z"/>
	<path class="st1" d="M436.9,48.3v5.1l-1.1-0.1l-0.1-0.9l-2-0.1H424l-2,0.1l-0.1,0.9l-1.1,0.1v-5.4c0-1.5,0.2-2.6,0.6-3.2
		c0.7-1.1,1.7-1.5,3-1.5c1.1,0,1.9,0.4,2.7,1.1c0.7,0.7,1.2,1.5,1.5,2.5l0,0c0.1-1.2,0.6-2.1,1.3-3c0.8-0.8,1.8-1.3,3-1.3
		c1.5,0,2.6,0.6,3.4,1.8c0.4,0.5,0.6,1.2,0.7,2C436.9,46.6,436.9,47.3,436.9,48.3z M428.1,50v-0.4c0-0.8,0-1.3,0-1.5
		c-0.1-0.6-0.2-1.1-0.6-1.4c-0.6-0.8-1.5-1.3-2.8-1.3c-1.2,0-2,0.5-2.5,1.4c-0.2,0.6-0.4,1.7-0.4,3V50C421.8,50,428.1,50,428.1,50z
		 M435.8,49.8l0.1-1.5c0-1.2-0.4-2.1-0.9-2.7s-1.4-0.9-2.2-0.9c-1.1,0-2,0.5-2.7,1.5c-0.6,0.9-0.9,1.9-0.9,3.1v0.7h4.6L435.8,49.8z"
		/>
	<path class="st1" d="M430.8,30v7.4c1.3,0,2.2-0.2,2.8-0.5c0.6-0.2,1.2-0.7,1.5-1.4c0.4-0.6,0.6-1.3,0.6-2c0-1.3-0.4-2.5-0.9-3.5
		h1.7c0.6,1.3,0.8,2.6,0.8,3.8c0,1.8-0.6,3.3-1.9,4.4c-1.2,1.1-2.7,1.5-4.5,1.5c-1.7,0-3.1-0.5-4.2-1.4c-1.2-0.9-1.9-2.2-1.9-3.9
		c0-1.5,0.6-2.6,1.8-3.4c0.9-0.6,2.2-0.9,3.9-0.9H430.8z M429.7,37.2v-5c-1.1,0-1.9,0.1-2.5,0.4c-0.8,0.4-1.3,1.1-1.3,2
		c0,0.8,0.5,1.5,1.3,2C428,36.9,428.8,37.2,429.7,37.2z"/>
	<path class="st1" d="M425,19l3,0.1l-0.1,1.1l-1.1,0.1c0,0.7,0.1,1.3,0.5,1.9c0.2,0.4,0.6,0.8,1.2,1.4h5.4l2-0.1l0.1-1.2l1.1-0.1V27
		l-1.1-0.1l-0.1-0.9l-2-0.1h-5.5l-1.9,0.1l-0.1,0.9l-1.1,0.1l-0.1-3.3h1.8l0.6,0.1v-0.1c-0.7-0.4-1.3-0.9-1.8-1.7
		c-0.5-0.7-0.7-1.4-0.7-2.2C424.8,19.3,424.9,19.1,425,19z"/>
	<path class="st1" d="M426.8,13.4l0.6,0.1v-0.1c-0.7-0.5-1.3-1.1-1.8-1.9c-0.5-0.8-0.7-1.7-0.7-2.4c0-1.1,0.4-1.9,1.1-2.5
		c0.6-0.5,1.7-0.8,3-0.8h4.8l2-0.1l0.1-0.9l1.1-0.1v4.6l-1.1-0.1l-0.1-1.1l-2-0.1h-4.5c-0.9,0-1.7,0.1-2,0.2
		c-0.6,0.2-0.8,0.8-0.8,1.7c0,0.6,0.2,1.3,0.6,1.9c0.2,0.4,0.7,0.9,1.3,1.5h5.4h2l0.1-0.9l1.1-0.2v4.6l-1.1-0.1l-0.1-0.9l-2-0.1
		h-5.5l-1.9,0.1l-0.1,0.9l-1.1,0.1l-0.1-3.3H426.8z"/>
</g>
<g>
	<path class="st1" d="M346.8,190.9c-2.8,0-5.5,1-8.5,1.5c0.2-0.5,1.8-2.7,2-3.1c1.9-3.9,2.1-7.6,3.5-11.8c0.4-1.1,0.6-2.2,0.8-3.3
		c0.2-0.9-0.2-1.8-1-2.5c-0.1,0.8-0.3,1.5-0.4,2.2c-0.1,0.7-0.5,0.9-1.1,0.9c-2,0-3.4,1-4.7,2.3c-0.4,0.4-0.5,1-0.7,1.5
		c-1.1,2.7-2.3,5.3-3.3,8.1c-0.4,1-0.5,2.2-0.7,3.3c-0.1,0.8-1,17.3-4.9,17.5c0,0-20.4-16.4-21.3-16.5c-4.6-0.2-11.2-0.1-19.4-0.2
		c-0.9,0-6.4,0.4-6.4-0.5c0,0,5.5-2,7.1-2c0.7,0,1.1-0.4,1.7-0.6c0.3-0.2,0.6-0.4,0.9-0.5c1.4-0.5,2.6-1.3,3.6-2.3
		c1.1-1.1,2.1-2.3,3.2-3.3c0.8-0.8,1.7-1.7,2.6-2.3c1.1-0.8,2-1.8,2.7-3c0.3-0.6,0.7-1.2,1.1-1.8c0.2-0.3,0.5-0.7,1-0.6
		c0.1,0,0.4-0.2,0.4-0.4c0-0.8-0.1-1.6-0.2-2.3c0-0.7,0-1.5-0.1-2.2c-0.1-1.7-0.5-3.3-2-4.4c-0.7-0.5-1.1-1.3-1.6-2
		c-0.7-1.1-1.5-2.3-2-3.5c-0.4-0.9-0.6-1.9-0.9-2.9c-0.1-0.3-0.3-0.6-0.4-1c-0.3-1-0.2-2.2-1.2-2.9c-0.2-0.1-0.4-0.4-0.4-0.6
		c0-0.9-0.6-1.6-1-2.4c-0.6-1.3-1.1-2.6-1.7-3.8c-0.5-1.1-1.2-2.1-1.7-3.2c-0.3-0.6-0.5-1.3-0.6-2c-0.2-0.7-0.2-1.5-0.3-2.3
		c-0.1-0.8,0-1.7-0.3-2.4c-0.3-0.7-0.3-1.4-0.3-2.1c0-0.9,0.9-1.7,1.7-1.7c0.6,0,1.3,0,2,0c-0.1-0.6-0.2-1.1-0.3-1.6
		c-0.2-0.7-0.6-1.4-0.9-2.2c-0.2-0.5-0.3-1.1-0.4-1.6c-0.1-0.8-0.2-1.7-0.2-2.6c0-2.7,0-5.5,0-8.2c0-0.5-0.1-1,0-1.5
		c0.1-0.8,0.3-1.5,0.5-2.3c0.3-0.9,0.5-1.8,0.9-2.7c0.2-0.5,0.6-1,0.9-1.5c0.1-0.2,0.2-0.4,0.3-0.6c0.3-0.5,0.5-1,0.8-1.5
		c0.3-0.4,0.5-1,1-1.2c0.6-0.4,1.1-0.9,1.4-1.5c0.2-0.3,0.2-0.8,0.1-1.1c-0.4-0.8-0.4-1.1,0.2-1.7c0.3-0.3,0.5-0.5,0.8-0.8
		c0.1-0.1,0.3-0.2,0.5-0.3c0,0,0.1,0.1,0.1,0.1c-0.4,0.3-0.7,0.6-1.1,0.9c0.2,0.3,0.3,0.5,0.4,0.6c1.9-0.6,3.3-2.3,5.8-1.8
		c-0.6,0.4-1.1,0.8-1.6,1.1c-0.6,0.4-1.3,0.6-2,1c-1.3,0.8-2.1,1.9-2.2,3.5c-0.2,1.4-0.5,2.8-0.8,4.2c-0.2,1-0.3,2-0.5,3.1
		c0.1,0,0.1,0.1,0.2,0.1c0.1-0.2,0.3-0.3,0.4-0.5c0.2-0.8,0.4-1.5,0.6-2.3c0.4-1.5,1.1-2.7,2.3-3.7c1.2-1,2.2-2.1,3.3-3.1
		c0.9-0.8,1.7-1.6,2.7-2.3c1.4-1,3-1.2,4.6-0.5c1.3,0.6,2.7,0.6,4,0.3c4.2-0.9,7.4,0.8,10.5,3.3c3.6,2.9,7.5,5.4,11.8,7.3
		c0.2,0.1,0.3,0.1,0.6,0.2c0-0.2-0.1-0.4-0.1-0.6c1.1-0.2,2,0.1,2.7,0.9c0.7,0.7,1.2,1.5,1.9,2.4c0.2-0.3,0.4-0.5,0.7-0.8
		c0.7,0.9,0.9,2.3,2.4,2.5c-0.2-0.4-0.4-0.8-0.5-1.1c-0.1-0.3-0.5-0.6-0.1-1.1c0.5,0.9,0.9,1.7,1.3,2.5c0.4,0.8,0.6,1.7,0.9,2.5
		c0.6-1.3,0.4-3.2-0.5-4.3c-0.7-0.8-1.5-1.6-2.1-2.4c-0.3-0.4-0.7-0.9-0.9-1.4c-0.3-0.9,0-1.7,0.9-2.3c0.1,0.4,0.3,0.7,0.4,1.1
		c0.3,1.5,1.1,2.6,2.2,3.3c-0.4-2.7-1.1-5.1-3.4-6.8c-0.4-0.3-0.8-0.5-1.2-0.8c-0.3-0.3-0.5-0.6-0.8-1c0-0.1,0.1-0.1,0.1-0.2
		c0.4,0.1,0.7,0.2,1.1,0.3c0.7,0.1,1.4,0.2,2,0.4c0.3,0.1,0.7,0.2,0.9,0.4c0.5,0.5,0.8,1.1,1.3,1.6c0.2,0.2,0.4,0.3,0.6,0.5
		c0.1,0.2,0.3,0.4,0.3,0.5c0.2,0.6,0.4,1.3,0.4,1.9c0,0.8,0.6,1.3,0.8,1.9c0.1,0.4,0.4,0.8-0.2,1.1c-0.1,0.1-0.2,0.5-0.2,0.7
		c0.1,1.5,0.4,2.9,0.5,4.4l1.3,5.5c0,0.5,0,1-0.1,1.5c-0.1,0.6-0.2,1.1-0.2,1.7c0,1.2,0,2.5,0.1,3.7c0,0.9-0.4,1.5-0.7,2.3
		c0,0.1,0,0.2,0,0.3c1-0.1,1.9-0.2,2.8-0.3c1.1-0.1,1.8,0.3,2.2,1.4c0,0.1,0,0.2,0,0.2c0.4,1.5,0.7,1.8,0.4,4.7
		c-0.3,0.7-0.4,1.4-0.8,2c-0.4,0.7-0.8,1.4-1.2,2.1c-0.5,0.9-0.9,1.9-1.5,2.8c-1,1.5-1.3,3.3-2.1,4.8c-0.2,0.4-0.5,0.8-0.7,1.2
		c-0.1,0.3-0.1,0.7-0.2,1c-0.4,0.9-1.1,1.6-2,2c-0.4,0.2-0.4,0.4-0.5,0.8c-0.1,1.1-0.3,2.2-0.5,3.3c-0.1,0-0.1,0-0.2,0
		c0-1.2,0.1-2.4,0-3.6c-0.1-1.2-0.3-2.4-0.4-3.8c-0.1,0.3-0.2,0.5-0.2,0.7c-0.3,1.6-0.6,3.1-1,4.7c-0.1,0.5-0.3,0.9-0.5,1.3
		c-0.1,0-0.2,0-0.3,0c-0.1-0.4-0.2-0.9-0.2-1.3c0.1-1,0.2-2,0.3-3c0-0.6-0.1-1.1-0.2-1.7c-0.1,0-0.2,0-0.2,0c-0.5,1.1-1,2.1-1.4,3.2
		c-1.5,3.8-3.1,7.6-4.6,11.4c-0.1,0.3-0.1,0.6-0.1,0.9c0,0.2,0.2,0.4,0.3,0.5c0.2-0.1,0.4-0.2,0.5-0.4c0.6-1.2,1.2-2.4,1.9-3.6
		c0.5-0.9,1-1.8,1.6-2.7c0.2-0.3,0.4-0.5,0.6-0.7c0.7-0.5,1.1-0.4,1.4,0.4c0.2,0.4,0.3,0.8,0.5,1.3c1-1,1.7-2.1,2.1-3.4
		c0.1,0,0.1,0,0.2,0.1c-0.1,0.5-0.2,1-0.4,1.4c-0.4,0.9-0.9,1.8-1.4,2.7c-0.5,0.8-0.3,1.7-0.2,2.5c0,0.6,0.1,1.2,0.2,1.8
		c0.1,0.8,0.1,1.6,0.3,2.3c0,0.2,0.2,0.5,0.3,0.7c0.2,0.5,0.3,1.1,0.6,1.6c0.1,0.3,0.5,0.5,0.7,0.8c0.4,0.5,0.8,0.9,1.2,1.4
		c0.5,0.6,0.9,1.3,1.4,1.9c1,1.1,1.9,2.2,2.7,3.5c0.4,0.7,1.1,1.3,2.1,1.4c0.3,0,0.6,0.2,0.8,0.3c0.7,0.3,1.4,0.6,2.1,0.8
		c0.9,0.3,1.7,0.6,2.6,0.9c0.9,0.2,1.9,0.4,2.8,0.6c0.8,0.1,1.7,0.1,2.6,0.3c0.4,0.1,0.7,0.3,0.7,0.8c0,2.2,0,1.3,0,3.5
		c0,0.3-1.4,3.4-3.6,3.4c-0.2,0-1.5,0-1.7,0c-5.2,0-5.9,0-11.1,0c-0.3,0-0.5,0-0.9,0c0-0.2,0-0.4,0-0.6 M341.8,136.4
		c0-0.1,0-0.2,0.1-0.3c-0.7-0.5-1.6-0.9-2.2-1.5c-1-1-2.2-1.4-3.5-1.8c-1.8-0.5-3.6-1.1-5.5-1.7c0.3-0.2,0.5-0.4,0.7-0.4
		c1.6-0.2,3.1-0.4,4.7-0.5c0.8-0.1,1.2,0.3,1.5,1c0.5,1.4,2.8,2.6,4.3,2.3c-0.1-0.4-0.2-0.9-0.2-1.3c0.1-1.2-0.6-1.9-1.5-2.5
		c-1.5-1-3.1-1.4-4.8-1.6c-2-0.2-4-0.3-6-0.5c-0.2,0-0.5,0-0.7,0.1c-1.6,0.7-3.2,1.3-4.8,2c-0.7,0.3-1.1,1-1.2,1.7
		c-0.2,1.6-0.5,3.3-0.6,4.9c-0.1,0.9,0.2,1.7,1,2.5c0.1-0.5,0.2-0.9,0.3-1.4c0.1-0.4,0.1-0.9,0.3-1.3c0.3-1.2,1.1-1.9,2.3-1.9
		c0.8,0,1.6,0,2.5-0.2c0.4-0.1,0.9-0.1,1.4,0c0.8,0.1,1.6,0.4,2.5,0.3c1.6,0,3.2,0.1,4.6,0.8c0.6,0.3,1.3,0.6,2,0.8
		C339.9,136.1,340.8,136.2,341.8,136.4z M327.2,157.3c0,0.1,0,0.1,0,0.2c-2.2,1.2-4.8,1.1-7.2,2c0.2,0.1,0.4,0.3,0.6,0.3
		c1,0,2,0.1,3-0.1c3-0.5,5.8-1.6,8.6-2.7c1.2-0.5,2.4-1.1,3.7-1.4c1-0.2,1.6-0.8,2.1-1.5c0.5-0.9,0.5-1.7-0.2-2.4
		c-0.8-0.7-1.7-1.4-2.5-2.1c-0.1,0-0.1,0.1-0.2,0.1c0.1,0.5,0.1,1.1,0.3,1.6c0.2,0.4,0.5,0.7,0.8,1.1c0.6,0.9,0.3,1.6-0.7,1.8
		c-1.6,0.2-3.3,0.4-5,0.5c-1.8,0.1-3.5,0.1-5.3,0.3c-2,0.2-4,0.8-6,0.8c-1.7,0-3.5-0.1-5.2,0.4c-0.3,0.1-0.8,0.1-1.1-0.1
		c-0.7-0.4-1.5-0.4-2.3-0.4c-0.6,0-1.1-0.1-1.7-0.2c-0.9-0.1-1.8-0.3-2.7-0.5c0,0.1-0.1,0.1-0.1,0.2c0.1,0.1,0.2,0.4,0.4,0.4
		c1.8,0.8,3.6,1.7,5.5,2.5c1.1,0.4,2.3,0.6,3.6,1c-0.2-0.7-0.4-1.2-0.6-1.6c0.1,0,0.2-0.1,0.2-0.1c3.7-0.1,7.3-0.3,11-0.4
		C326.4,157,326.8,157.2,327.2,157.3z M322.9,180.4c0.5-1.5,0.3-1.8-1-2.5c-0.4-0.2-0.8-0.5-1.2-0.7c-1.3-0.7-2.7-0.9-4.1-1.1
		c-0.2,0-0.6,0.1-0.6,0.3c-0.1,0.2,0.1,0.5,0.2,0.7c0.3,0.3,0.7,0.5,1,0.9c0.6,0.9,1.5,1.2,2.5,1.4c1.4,0.3,2.4,0.9,3,2.3
		c0.6,1.2,3.1,1.7,4.2,0.9c0.7-0.6,1.5-0.9,2.4-0.5c0.3,0.2,0.7,0,0.6-0.5c-0.1-0.6,0.2-1,0.7-1.3c0.2-0.2,0.5-0.3,0.7-0.5
		c0.6-0.5,0.6-0.8,0-1.2c-0.5-0.4-0.8-0.8-1-1.5c-0.3-1.5-0.5-1.7-2-1.2c-1.9,0.6-3.4,1.5-3.6,3.8c0,0.6-0.4,0.8-1,0.8
		C323.6,180.5,323.2,180.4,322.9,180.4z M328.7,144c-0.2,0.5-0.5,0.8-0.6,1.2c-0.1,1.1-0.8,1.7-1.8,2.1c-1.3,0.6-2.6,1.2-3.9,1.8
		c-1,0.5-2,0.6-3,0.2c-1.3-0.5-2.7-1-4-1.4c-1-0.3-1.9-0.2-2.9,0.3c0.5,0.3,0.9,0.5,1.4,0.7c2.3,1,4.6,1.8,6.7,3.3
		c1.2,0.9,2.6,0.8,3.9,0.1c0.8-0.4,1.6-1,2.4-1.5c1.3-0.9,2-2.1,2.3-3.6C329.4,146.2,329.4,145.1,328.7,144z M296.1,142.3
		c0.1,0,0.1,0,0.2-0.1c0-0.1,0-0.3,0-0.4c0.2-2.9,0.3-5.8,0.5-8.7c0.2-3.1,0.2-6.2-0.7-9.3c-0.1-0.4-0.2-0.5-0.7-0.4
		c-0.2,1.9-0.7,3.8-0.4,5.7c0.1,0.7,0.2,1.3,0.3,2c0.1,0.5,0,1-0.6,1.1c-0.5,0.1-0.5,0.5-0.4,0.9c0.4,2.2,0.7,4.5,1.1,6.7
		C295.7,140.7,295.9,141.5,296.1,142.3z M300.3,132.6c0.5-0.3,0.9-0.5,1.2-0.9c0.6-0.8,1.4-1.2,2.4-1.2c2.5-0.1,4.9-0.3,7.4-0.4
		c0.7,0,1.2-0.2,1.7-0.8c-0.4-0.3-0.7-0.7-1-0.7c-2.2-0.2-4.5-0.4-6.7-0.4C302.9,128.3,300.7,130.2,300.3,132.6z M316,133.2
		c0-0.1,0-0.2,0-0.2c-0.5-0.2-1.1-0.5-1.6-0.6c-1.8-0.4-3.5-0.4-5.3-0.1c-2,0.3-4,0.7-5.8,1.8c-0.5,0.3-0.9,0.7-1.4,1.1
		c0,0.1,0.1,0.1,0.1,0.2c0.7-0.1,1.5-0.2,2.2-0.4c1.1-0.2,2.2-0.4,3.3,0.1c0.6,0.3,1.3,0.1,1.9-0.2c0.7-0.3,1.3-0.6,2-0.9
		C313,133.3,314.5,132.9,316,133.2z M331.7,160.3c0,0-0.1-0.1-0.1-0.1c-0.3,0.3-0.7,0.5-0.9,0.9c-0.9,1.2-2,1.7-3.5,1.8
		c-2.6,0.1-5.1,0.3-7.7,0.5c-1.2,0.1-2.4,0.3-3.7,0.5c0,0.1,0,0.2-0.1,0.2c0.4,0.2,0.8,0.5,1.1,0.5c1.4,0,2.7-0.2,4.1-0.3
		c0.6-0.1,1.3-0.2,1.9,0.3c0.7,0.7,1.5,0.7,2.3,0.5c1.2-0.4,2.4-0.8,3.6-1.2C330.3,163,331.3,161.9,331.7,160.3z M310.7,145.7
		c-0.9,1.1-1.8,2.2-2.8,3.3c-0.6,0.7-1.2,1.2-2.1,1.3c-0.7,0.1-1.1,0.5-1.2,1.2c-0.2,0.7-0.3,1.4-0.4,2.2c0,0.3,0.1,0.7,0.1,1.2
		c0.4-0.3,0.7-0.5,0.9-0.7c0.5-0.5,1-1.1,1.5-1.7c1.7-1.8,3-3.8,4.1-6C311.2,146,311.1,145.9,310.7,145.7z M344.6,123.5
		c-1,3.5,0.3,6.5,1.2,9.6C347.6,130.9,346.9,126.8,344.6,123.5z M296.5,113.3c-1.2-0.1-2,0.5-2.7,1.4c-0.9,1.4-1.3,4-0.8,5.7
		C294.2,118,295.4,115.7,296.5,113.3z M310.4,188.9c0.4-0.3,0.5-0.3,0.3-0.7c-1-2.4-2-4.8-3-7.2c-0.1-0.3-0.5-0.4-0.9-0.7
		c-0.1,0.4-0.3,0.7-0.2,0.8C307.8,183.7,308.4,186.6,310.4,188.9z M323.2,174.8c-2.3-0.2-4.5-0.4-6.8-0.5c-0.2,0-0.4,0.1-0.5,0.2
		c0.2,0.1,0.3,0.3,0.5,0.3c1.3,0.3,2.7,0.6,4,0.8c0.9,0.2,1.8,0.3,2.7,0.5C323.1,175.7,323.1,175.3,323.2,174.8z M311.5,137.8
		c-1.5-0.3-5,0.5-5.6,1.3C307.9,139.4,309.7,139,311.5,137.8z M347.2,152.2c0-0.1,0.1-0.1,0.1-0.2c0.1-2,0.3-4.1,0.4-6.1
		c0-0.4-0.1-0.5-0.5-0.5C346.8,147.2,346.8,151.9,347.2,152.2z M331.6,138c1.4,1.2,4.3,1.5,5.3,0.4
		C335.1,138.3,333.4,138.2,331.6,138z M346.3,141.2c0.8-1.8,0.6-4.9-0.5-6C346,137.2,346.1,139.1,346.3,141.2z"/>
	<path class="st1" d="M348.1,105.5c-0.3-0.5-0.5-0.9-0.7-1.3c-0.7-1.5-1.8-2.6-3.2-3.4c-1.6-0.9-3.2-1.9-4.9-2.7
		c-0.7-0.4-1.6-0.5-2.4-0.9c-0.5-0.3-1.1-0.6-1.4-1.1c-1.2-1.9-2.9-3-4.9-3.7c-0.1,0-0.2-0.1-0.3-0.1c0.5-0.4,0.9-0.3,1.4-0.1
		c1,0.4,2.1,0.7,3.1,1.3c0.5,0.3,0.9,0.4,1.4,0.3c1.5-0.2,2.9,0.3,4.3,0.8c0,0,0.1,0,0.1,0c0.5,0.7,1.5,0.7,2.1,1.3
		c0.6,0.6,1.1,1.3,1.6,2c0.5,0.6,0.9,1.2,1.4,1.8c0.2,0.3,0.3,0.6,0.4,0.9c0.2,0.5,0.4,1,0.7,1.5c0.5,1,0.9,2,1.4,3
		C348.1,105.1,348.1,105.2,348.1,105.5z"/>
	<path class="st1" d="M328,99c-1.6-0.4-3.2-0.9-4.8-1.3c2-1.3,9.8,0.8,10.3,3.4c-0.4-0.1-0.7-0.2-1.1-0.2c-0.1,0.3-0.1,0.6-0.3,0.7
		c-0.2,0.1-0.5,0-0.8,0c-0.9-0.3-1.7-0.6-2.6-0.9C327.6,100.2,327.6,100.1,328,99z"/>
	<path class="st1" d="M332.1,94.7c3.1,1.7,5.6,4.1,7.6,6.9c0,0.1-0.1,0.1-0.1,0.2c-1.5-1-3-2-4.6-3.1c0,0.6,0.1,1.1,0.1,1.7
		c-0.8-0.8-1.6-1.6-2.3-2.3c-0.1-0.1-0.1-0.3,0-0.4c0.4-0.6,0.1-1.1-0.2-1.6c-0.3-0.4-0.5-0.9-0.8-1.3
		C331.9,94.9,332,94.8,332.1,94.7z"/>
	<path class="st1" d="M330.7,105.3c-1.3-1-2.5-2-3.7-2.9c-0.1,0-0.1-0.1-0.1-0.2c-0.2-0.5,0-1,0.6-0.9c0.6,0.1,1.3,0.3,1.8,0.7
		C330.3,102.7,330.7,103.9,330.7,105.3z"/>
	<path class="st1" d="M319.2,93.6c1.4-0.4,2.7-0.8,3.9-1.2c0.1,0,0.3,0,0.4,0.1c0.1,0.1,0,0.3,0,0.4c-0.2,0.7-0.8,1-1.4,1.2
		C321.1,94.2,320.2,94.1,319.2,93.6z"/>
	<path class="st1" d="M319,91.1c0.8-0.5,1.6-1.1,2.6-0.6c0.1,0.1,0.4-0.2,0.5-0.2c0.2,0.1,0.4,0.3,0.6,0.3c0.7,0.1,1.3,0.2,2,0.3
		c0,0.1,0,0.2,0,0.3c-0.7,0-1.5,0-2.2,0c-1,0-2,0.2-3,0.2C319.3,91.3,319.1,91.2,319,91.1L319,91.1z"/>
	<path class="st1" d="M302.7,96.1c0,0.3,0,0.6,0,0.8c0.1,0,0.1,0,0.2,0.1c-0.7,0.5-1.3,1-2,1.5C300.8,97.4,301.9,96,302.7,96.1z"/>
	<path class="st1" d="M318,92.2c-0.6,1.4-1.4,1.7-2.6,0.8C316.3,92.7,317.1,92.5,318,92.2z"/>
	<path class="st1" d="M329.2,91.4c-1.2,0.5-2.3-0.1-3.4-0.2c1.2,0,2.3,0,3.5,0C329.2,91.3,329.2,91.3,329.2,91.4z"/>
	<path class="st1" d="M319,91.1c-0.9,0.2-1.8,0.4-2.8,0.7c0-0.1,0-0.1,0-0.2c0.5-0.2,0.9-0.4,1.4-0.5c0.4-0.1,0.8-0.1,1.2-0.2
		C318.8,90.9,318.9,91,319,91.1C319,91.1,319,91.1,319,91.1z"/>
</g>
<g>
	<g>
		<defs>
			<rect id="SVGID_1_" x="82.2" y="312.1" width="70.7" height="52"/>
		</defs>
		<clipPath id="SVGID_00000016795015021319625420000012684999601090038188_">
			<use xlink:href="#SVGID_1_"  style="overflow:visible;"/>
		</clipPath>
		<g style="clip-path:url(#SVGID_00000016795015021319625420000012684999601090038188_);">
			<g>
				<defs>
					<path id="SVGID_00000046310986268407463470000015579940870997734800_" d="M115.6,334.6c0,0-0.3,8-8.2,8c-7.9,0-8.2-7.1-8.2-7.1
						v-3.4h-1.8v10.1h-6.9l0-10.1h-6.7v30.2h67.6v-48.6H83.8l0,13.3h6.7v-1c0,0-0.1-3.5,2.2-5.7c2.2-2.3,4.8-2.3,4.8-2.3l43.5,0
						l0,10.9l1.5-1.8h8l-5.2,6.2l5.5,9.1l-8,0l-1.9-3.1v3.1h-15.3v-8.8c0-1.6-2.1-1.4-2.1-1.4v10.1l0,0h-6.9l0-15.3H127
						c0,0,2.8-0.1,4.4,1.4s1.4,3.7,1.4,3.7v3.4c0,1.4,1.1,1.1,1.1,1.1l0-13.3h-33.2c0,0-1.9-0.1-2.6,0.7c-0.8,0.8-0.6,2-0.6,2v1h9.1
						v7.5c0,0-0.1,1.5,1,1.5s1-1.5,1-1.5V327h7.2v7.5L115.6,334.6z M114.2,334.5v-6.1h-4.4v6.1c0,0,0,3-2.4,3s-2.4-3-2.4-3v-6.1
						l-9.1,0V327c0,0-0.3-2.5,1.1-3.8c1.3-1.3,3.6-1.3,3.6-1.3l34.6,0v16.2l0,0l0,0h-1.4c0,0-2.5,0.3-2.5-2.5v-3.4
						c0,0,0.1-1.7-0.9-2.7c-1-1-3.4-1-3.4-1h-9l0,12.4h4.1l0,0v-10.1h1.4c0,0,3.5-0.2,3.5,2.8l0,7.4l12.5,0v-5
						c0-1.4,1.2,0.3,1.2,0.3l3,4.8h4.7l-4.7-7.8l3.9-4.6l-4.4,0l-2.4,2.9c0,0-1.2,1.5-1.2,0.1l0-12.1H97.4c0,0-1.9-0.1-3.8,1.7
						c-1.8,1.9-1.7,4.9-1.7,4.9v2.4h-9.5v-16.2h70.4v51.5H82.4v-33h9.5v10.1h0h4.1l0-10.1h4.7v4.8c0,0,0,5.6,6.8,5.6
						C114.1,341.1,114.2,334.5,114.2,334.5"/>
				</defs>
				<clipPath id="SVGID_00000129193855790221701950000007466146800546749082_">
					<use xlink:href="#SVGID_00000046310986268407463470000015579940870997734800_"  style="overflow:visible;"/>
				</clipPath>
				<g style="clip-path:url(#SVGID_00000129193855790221701950000007466146800546749082_);">
					<path class="st1" d="M65.5,296.3h104.1v104.1H65.5V296.3z"/>
				</g>
			</g>
		</g>
	</g>
	<g>
		<defs>
			<path id="SVGID_00000011709600000621805070000012233472939039792296_" d="M67.9,298.6h99.4v1.4H67.9V298.6z M165.9,300h1.4v96.6
				h-1.4V300z M67.9,300h1.4v96.6h-1.4V300z M67.9,396.6h99.4v1.4H67.9V396.6z"/>
		</defs>
		<clipPath id="SVGID_00000026156436806561322450000012978692290794427560_">
			<use xlink:href="#SVGID_00000011709600000621805070000012233472939039792296_"  style="overflow:visible;"/>
		</clipPath>
		<g style="clip-path:url(#SVGID_00000026156436806561322450000012978692290794427560_);">
			<path class="st1" d="M65.5,296.3h104.1v104.1H65.5V296.3z"/>
		</g>
	</g>
</g>
</svg>
