<?xml version="1.0" encoding="utf-8"?>
<!-- Generator: Adobe Illustrator 27.2.0, SVG Export Plug-In . SVG Version: 6.00 Build 0)  -->
<svg version="1.1" id="Ebene_1" xmlns="http://www.w3.org/2000/svg" xmlns:xlink="http://www.w3.org/1999/xlink" x="0px" y="0px"
	 viewBox="0 0 699.3 791.2" style="enable-background:new 0 0 699.3 791.2;" xml:space="preserve">
<style type="text/css">
	.st0{fill:#1D1E1C;}
	.st1{fill:#3C3C3B;}
	.st2{fill:#C6C6C5;}
	.st3{fill:#D21419;}
	.st4{fill:#F49E55;}
	.st5{fill:#A71917;}
	.st6{fill:#861816;}
	.st7{fill:#E74F1C;}
	.st8{fill:none;stroke:#1D1E1C;stroke-width:1.4219;stroke-miterlimit:10;}
	.st9{fill:#6D6D6C;}
	.st10{fill:#B86625;}
	.st11{fill:#DAA168;}
	.st12{fill:#9F541B;}
	.st13{fill:#C36C28;}
	.st14{fill:#F9F9FA;}
	.st15{fill:none;}
</style>
<g>
	<path class="st0" d="M289.1,557.7l-4.3,19.1l-41.4,214.4h19.2L312.2,534c0.4-1.8-0.7-3.6-2.5-4l-11.9-2.7c-1.8-0.4-3.6,0.7-4,2.5
		l-4.9,25.6C289.2,556.1,289.3,556.9,289.1,557.7z"/>
	<path class="st0" d="M426.7,550.3c2-0.4,4,0.8,4.4,2.8l54,238.1h12.2l-72.1-265.8c-0.4-1.8-2.2-2.9-4-2.5l-11.9,2.7
		c-1.8,0.4-2.9,2.2-2.5,4l6.5,23.8c0.1,0,0.1,0,0.2-0.1L426.7,550.3z"/>
	<path class="st1" d="M284.8,576.7l4.1-21.3c-0.4-1.1-1.4-1.9-2.6-2.2l-13.2-3c-2-0.4-4,0.8-4.4,2.8l-54,238.1h21.4L284.8,576.7z"/>
	<path class="st1" d="M413.4,553.3c-1.9,0.5-3,2.4-2.6,4.3l53,233.5h14.1L413.4,553.3z"/>
	<path class="st1" d="M485.2,791.2l-54-238.1c-0.4-2-2.4-3.2-4.4-2.8l-13.2,3c-0.1,0-0.1,0-0.2,0.1l64.5,237.8H485.2z"/>
	<g>
		<path class="st2" d="M289.1,536c-0.5,2,0.7,4,2.6,4.4l17.8,4c1.9,0.4,3.8-0.9,4.3-2.9l4.2-18.4c0.5-2-0.7-4-2.6-4.4l-17.8-4
			c-1.9-0.4-3.8,0.9-4.2,2.9L289.1,536z"/>
	</g>
	<g>
		<path class="st2" d="M430,531.5c0.5,2-0.7,4-2.6,4.4l-17.8,4c-1.9,0.4-3.8-0.9-4.2-2.9l-4.2-18.4c-0.5-2,0.7-4,2.6-4.4l17.8-4
			c1.9-0.4,3.8,0.9,4.2,2.9L430,531.5z"/>
	</g>
	<rect x="311.8" y="350.5" class="st0" width="73.1" height="38.9"/>
	<path class="st0" d="M376.1,0h-55.5c-5.3,0-9.7,4-9.7,8.8v36h15.7V20.2c0-3.7,3.2-6.6,7.2-6.6h29c4,0,7.2,3,7.2,6.6v24.6h15.7v-36
		C385.8,4,381.5,0,376.1,0z"/>
	<path class="st3" d="M182.3,204.3c0,93.3,75.6,168.9,168.9,168.9c93.3,0,168.9-75.6,168.9-168.9c0-93.3-75.6-168.9-168.9-168.9
		C257.9,35.5,182.3,111.1,182.3,204.3z"/>
	<path class="st4" d="M351.2,44c76.2,0,140.4,51.6,159.6,121.8c-17.4-72-82.2-125.6-159.6-125.6c-77.4,0-142.2,53.5-159.6,125.6
		C210.8,95.6,275,44,351.2,44z"/>
	<path class="st5" d="M193.6,205.3c0,85.4,69.3,154.7,154.7,154.7c85.5,0,154.7-69.3,154.7-154.7c0-85.4-69.3-154.7-154.7-154.7
		C262.9,50.6,193.6,119.8,193.6,205.3z"/>
	<path class="st6" d="M348.4,50.6c-10.4,0-20.5,1-30.3,3c2-0.1,4.1-0.1,6.1-0.1c83.9,0,151.9,68,151.9,151.9s-68,151.9-151.9,151.9
		c-2.1,0-4.1-0.1-6.1-0.1c9.8,1.9,19.9,3,30.3,3c85.5,0,154.7-69.3,154.7-154.7C503.1,119.8,433.8,50.6,348.4,50.6z"/>
	<path class="st0" d="M348.9,226c-12.9,0-23.5-10.5-23.5-23.5c0-2.4,0.4-4.8,1.1-7.1l-5.2-2.6c-0.6-0.3-1.1-0.9-1.3-1.6
		c-0.2-0.7-0.2-1.4,0.2-2l2.2-4.3c0.6-1.3,2.3-1.8,3.6-1.2l5.7,2.9c4.4-4.8,10.7-7.5,17.2-7.5c12.9,0,23.5,10.5,23.5,23.4
		C372.3,215.5,361.8,226,348.9,226z"/>
	<path class="st2" d="M348.4,180c-6.7,0-12.7,2.9-16.8,7.6l-6.1-3.1c-1-0.5-2.1-0.1-2.6,0.9l-2.1,4.2c-0.5,0.9-0.1,2.1,0.9,2.6
		l5.6,2.8c-0.8,2.3-1.2,4.7-1.2,7.3c0,12.3,10,22.3,22.3,22.3c12.3,0,22.3-10,22.3-22.3C370.7,190,360.7,180,348.4,180z
		 M343.3,214.3c-2.5,2.2-6.3,2-8.6-0.5c-2.2-2.5-2-6.3,0.5-8.6c2.5-2.2,6.3-2,8.6,0.5C346,208.3,345.8,212.1,343.3,214.3z
		 M344,198.5c-2.2-2.5-2-6.3,0.5-8.6c2.5-2.2,6.3-2,8.6,0.5c2.2,2.5,2,6.3-0.5,8.6C350.1,201.2,346.2,201,344,198.5z M361.9,214.3
		c-2.5,2.2-6.4,2-8.6-0.5c-2.2-2.5-2-6.3,0.5-8.6c2.5-2.2,6.3-2,8.6,0.5C364.6,208.3,364.4,212.1,361.9,214.3z"/>
	<path class="st7" d="M516.8,407.7c-6.2-15.3-79.2-27.4-168.5-27.4c-89.2,0-162.3,12.1-168.5,27.4c-0.3,0.7-0.4,1.4-0.4,2.1
		c0,1.4,0.5,2.7,1.6,4c11.3,14.4,81.9,25.4,167.3,25.4c85.4,0,156.1-11.1,167.3-25.4c1-1.3,1.6-2.7,1.6-4
		C517.3,409.1,517.1,408.4,516.8,407.7z"/>
	<path class="st0" d="M434.5,396.7c-60.9,13.9-123.2,28-170.3,38.6c5.7,0.6,11.5,1.1,17.6,1.6c50.1-11.3,112.1-25.3,167-37.9
		C444.3,398.2,439.5,397.4,434.5,396.7z M461.1,401.4c-58.7,13.4-117.5,26.7-161.6,36.6c6.7,0.4,13.6,0.6,20.7,0.9
		c45.4-10.2,101-22.8,152.5-34.6C469.1,403.3,465.2,402.3,461.1,401.4z M498,414.5c-38.1,8.7-74.6,16.9-105.1,23.8
		c12.3-0.6,24.1-1.4,35.2-2.4c23.7-5.4,49.3-11.1,75.1-17C501.9,417.4,500.2,415.9,498,414.5z M482.5,407.3
		c-51.8,11.8-102.2,23.2-141.2,31.9c2.6,0,5.3,0,7.9,0c5.8,0,11.5-0.1,17.1-0.2c37.7-8.5,82-18.5,125-28.3
		C488.7,409.6,485.7,408.4,482.5,407.3z M402.4,393.3c-59,13.4-120.1,27.3-168.2,38.1c4.7,0.8,9.7,1.5,14.9,2.2
		c52.3-11.8,115.8-26.2,170.6-38.7C414.1,394.2,408.3,393.7,402.4,393.3z M206.8,411c23.5-5.3,47.3-10.7,70-15.9
		C246.1,398.6,221.3,404.2,206.8,411z M363.4,391.4c-53.1,12.1-108.2,24.6-154,34.9c3.7,1,7.8,1.9,12.2,2.8
		c51.5-11.6,111.5-25.3,162.9-37C377.5,391.8,370.5,391.5,363.4,391.4z M312.6,392.2c-39.9,9.1-80.6,18.3-117.3,26.6
		c-0.7,0.8-1.3,1.6-1.8,2.5c1.8,0.7,3.7,1.4,5.8,2.1c46-10.4,96.8-22,141.3-32.1C331.1,391.4,321.7,391.7,312.6,392.2z"/>
	<path class="st5" d="M516.8,407.7c-6.2-15.3-80.3-28.4-169.5-28.4c-89.3,0-161.3,13.1-167.4,28.4c-0.3,0.7-0.4,1.4-0.4,2.1
		c0,1.4,0.5,2.7,1.6,4c2,2.6,6,5.1,11.7,7.4c8.9-16.9,75.2-30,155.6-30c80.5,0,146.8,13.1,155.7,30c5.6-2.3,9.6-4.8,11.7-7.4
		c1-1.3,1.6-2.7,1.6-4C517.3,409.1,517.1,408.4,516.8,407.7z"/>
	<path class="st8" d="M504,421.3c-8.9-16.9-75.2-30-155.7-30c-80.5,0-146.8,13.1-155.6,30c-3.5-1.5,76,18,155.6,18
		C428,439.3,507.5,419.8,504,421.3z"/>
	<g>
		<polygon class="st0" points="324.5,625.4 314.3,625.4 314.3,588.9 324.5,588.9 324.5,583.5 308.2,583.5 308.2,630.9 324.5,630.9 
					"/>
		<path class="st0" d="M318.8,556.8v87.1c0,0,10.3,3,42.5,3c32.2,0,38.9-3,38.9-3v-87.1H318.8z M331.9,579.4c-0.3,1.9-2.1,3.3-4,3
			c-2-0.3-3.3-2-3-4c0.3-1.9,2.1-3.2,4-3C330.8,575.7,332.1,577.4,331.9,579.4z M340.4,583.8c-2-0.2-3.4-1.9-3.2-3.8
			c0.2-1.9,2-3.3,3.9-3.2c1.9,0.2,3.4,1.8,3.2,3.8C344.1,582.5,342.4,583.9,340.4,583.8z M353,584.6c-2-0.1-3.5-1.7-3.4-3.7
			c0.1-1.9,1.8-3.4,3.7-3.3c1.9,0.1,3.5,1.7,3.4,3.6C356.7,583.1,355,584.7,353,584.6z M365.7,584.8c-2,0-3.6-1.6-3.6-3.5
			c0-1.9,1.6-3.5,3.5-3.5c1.9,0,3.5,1.5,3.6,3.4C369.3,583.1,367.7,584.7,365.7,584.8z M378.4,584.2c-2,0.2-3.7-1.3-3.8-3.3
			c-0.1-1.9,1.3-3.6,3.3-3.7c1.9-0.1,3.6,1.3,3.8,3.2C381.8,582.4,380.4,584.1,378.4,584.2z M391.1,582.8c-2,0.3-3.9-1-4.1-2.9
			c-0.3-1.9,1-3.7,2.9-4c1.9-0.3,3.7,0.9,4.1,2.8C394.4,580.6,393.1,582.4,391.1,582.8z"/>
		<g>
			<path class="st9" d="M361.2,588.9c-5.9,0-11.1-0.1-15.6-0.3v58c4.5,0.1,9.7,0.2,15.6,0.2c0.7,0,1.4,0,2.1,0v-57.9
				C362.7,588.9,362,588.9,361.2,588.9z"/>
			<path class="st9" d="M367.9,588.9v57.9c1.7,0,3.4,0,4.9-0.1v-58C371.3,588.8,369.7,588.9,367.9,588.9z"/>
		</g>
	</g>
	<g>
		<path class="st10" d="M386.7,384.9c1.7,14.5-23.2,24.3-55.1,27.2c-32,3-59.8-1.6-59.4-14.5c0.2-8.6,26.1-1.1,58.1-4
			C362.2,390.6,385.9,376.3,386.7,384.9z"/>
		<path class="st11" d="M379.5,385.9c0,0-1.7,1-4.8,2.2c-3.1,1.2-7.6,2.6-12.8,3.9c-5.2,1.3-11.2,2.5-17.2,3.5
			c-6,1-12.1,1.7-17.6,2.2c-5.7,0.5-11.3,0.7-16.4,0.6c-5.1-0.1-9.7-0.4-13.5-0.9c-7.7-0.9-12.5-2.2-12.9-1.2
			c-0.2,0.5,0.9,1.4,3.1,2.4c2.2,1,5.6,2,9.7,2.7c4.1,0.7,9,1.2,14.2,1.2c5.2,0,10.8-0.3,16.4-0.9c4.3-0.5,9.9-1.4,15.7-2.7
			c5.8-1.3,11.9-3,17.4-4.8c5.5-1.8,10.3-3.7,13.7-5.4c1.7-0.8,3-1.5,3.9-2.1C379.1,386.2,379.5,385.8,379.5,385.9z"/>
		<path class="st12" d="M386.3,383.6c-1.6,4.2-3.7,7.5-8.1,11.1c-22.7,18.3-71.5,17.9-89.4,12.4c-7.1-2.2-13.9-4.1-15.3-12.2
			c-0.9,0.6-1.4,1.5-1.5,2.7c-0.3,12.8,27.5,17.4,59.4,14.5c32-3,56.8-12.7,55.1-27.2C386.6,384.4,386.5,384,386.3,383.6z"/>
		<path class="st12" d="M332.6,396.5c3.1,3.8,5.6,8.1,7.3,12.6c0.3,0.6,0.5,1.2,0.7,1.9c0.4-0.1,0.8-0.1,1.2-0.2
			c-0.2-0.7-0.5-1.4-0.8-2.1C338.9,404.2,336,400.1,332.6,396.5z M352.5,392.6c3.2,2.9,5.2,6.9,6.5,10.9c0.4,1.1,0.8,2.3,1.1,3.5
			c0.3-0.1,0.7-0.2,1-0.3c-0.3-1.2-0.7-2.4-1.1-3.6C358.3,399.1,355.9,395.3,352.5,392.6z M299.9,409.7c-0.2,0.9-0.4,1.7-0.6,2.5
			c0.3,0,0.7,0.1,1,0.1c0.2-0.8,0.4-1.6,0.6-2.5c0.6-4,0.4-8.1-0.4-12.1C300.9,401.8,300.7,405.9,299.9,409.7z M375.5,396.8
			c-0.8-1.7-1.9-3.3-3.2-4.6c-1.3-1.3-3-2.4-4.8-2.7c1.8,0.5,3.3,1.7,4.5,3.1c1.2,1.4,2,3,2.7,4.7c0.5,1.1,0.9,2.3,1.2,3.5
			c0.3-0.2,0.6-0.3,0.8-0.5C376.4,399,376,397.9,375.5,396.8z M314.4,398.8c1.3,1.6,2,3.6,2.4,5.6c0.4,2,0.6,4,0.5,6.1
			c0,0.8,0,1.6-0.1,2.5c0.3,0,0.7,0,1,0c0.1-0.8,0.1-1.6,0.1-2.4c-0.1-2.1-0.4-4.2-1-6.2C316.7,402.3,315.8,400.3,314.4,398.8z"/>
	</g>
	<g>
		<path class="st13" d="M347.6,403.4c1.6,14.6-23.3,24.1-55.3,27c-32,2.8-59.8-1.9-59.4-14.7c0.3-8.6,26.1-0.9,58.1-3.7
			C323.1,409.1,346.9,394.8,347.6,403.4z"/>
		<path class="st11" d="M340.5,404.4c0,0-1.7,1-4.8,2.1c-3.1,1.2-7.6,2.5-12.9,3.8c-5.2,1.3-11.2,2.5-17.2,3.5
			c-6,1-12.1,1.7-17.6,2.1c-5.7,0.5-11.3,0.7-16.4,0.6c-5.1-0.1-9.7-0.5-13.5-0.9c-7.7-0.9-12.5-2.3-12.9-1.2
			c-0.2,0.5,0.9,1.4,3.1,2.4c2.2,1,5.5,2,9.6,2.8c4.1,0.8,9,1.2,14.2,1.3c5.2,0.1,10.8-0.2,16.4-0.8c4.3-0.5,9.9-1.3,15.7-2.6
			c5.8-1.3,11.9-2.9,17.4-4.7c5.5-1.8,10.3-3.7,13.7-5.3c1.7-0.8,3-1.5,3.9-2C340,404.7,340.5,404.4,340.5,404.4z"/>
		<path class="st12" d="M347.3,402.2c-1.6,4.2-3.7,7.5-8.2,11.1c-22.8,18.2-71.6,17.5-89.4,11.9c-7.1-2.2-13.9-4.2-15.2-12.2
			c-0.9,0.6-1.4,1.5-1.5,2.6c-0.4,12.8,27.4,17.6,59.4,14.7c32-2.8,56.9-12.4,55.3-27C347.6,403,347.5,402.6,347.3,402.2z"/>
		<path class="st12" d="M293.5,414.9c3.1,3.8,5.6,8.1,7.2,12.7c0.2,0.6,0.5,1.2,0.7,1.9c0.4-0.1,0.8-0.1,1.2-0.2
			c-0.2-0.7-0.5-1.4-0.8-2.1C299.8,422.5,296.9,418.4,293.5,414.9z M313.4,411c3.2,3,5.2,6.9,6.5,11c0.4,1.1,0.7,2.3,1,3.5
			c0.3-0.1,0.7-0.2,1-0.3c-0.3-1.2-0.6-2.4-1.1-3.6C319.2,417.6,316.8,413.7,313.4,411z M260.7,427.9c-0.2,0.9-0.4,1.7-0.6,2.5
			c0.3,0,0.7,0.1,1,0.1c0.2-0.8,0.4-1.6,0.6-2.5c0.6-4,0.5-8.2-0.4-12.1C261.8,420,261.6,424,260.7,427.9z M336.4,415.3
			c-0.8-1.7-1.9-3.3-3.2-4.7c-1.3-1.3-3-2.4-4.8-2.7c1.8,0.5,3.3,1.7,4.5,3.1c1.2,1.4,2,3,2.7,4.7c0.5,1.1,0.9,2.3,1.2,3.5
			c0.3-0.2,0.6-0.3,0.8-0.5C337.2,417.5,336.9,416.4,336.4,415.3z M275.3,417c1.3,1.6,2,3.6,2.4,5.6c0.4,2,0.5,4,0.4,6.1
			c0,0.8,0,1.6-0.1,2.5c0.3,0,0.7,0,1,0c0.1-0.8,0.1-1.6,0.1-2.4c-0.1-2.1-0.4-4.2-1-6.2C277.6,420.5,276.7,418.6,275.3,417z"/>
	</g>
	<g>
		<path class="st13" d="M455.6,410.5c1.7,14.5-23.2,24.3-55.1,27.2c-32,3-59.8-1.6-59.4-14.5c0.2-8.6,26.1-1.1,58.1-4
			C431.1,416.3,454.8,401.9,455.6,410.5z"/>
		<path class="st11" d="M448.4,411.5c0,0-1.7,1-4.8,2.2c-3.1,1.2-7.6,2.6-12.8,3.9c-5.2,1.3-11.2,2.6-17.2,3.5
			c-6,1-12.1,1.7-17.6,2.2c-5.7,0.5-11.3,0.7-16.4,0.6c-5.1-0.1-9.7-0.4-13.5-0.9c-7.7-0.9-12.5-2.3-12.9-1.2
			c-0.2,0.5,0.9,1.4,3.1,2.4c2.2,1,5.6,2,9.7,2.7c4.1,0.7,9,1.2,14.2,1.2c5.2,0,10.8-0.3,16.4-0.9c4.3-0.5,9.9-1.4,15.7-2.7
			c5.8-1.3,11.9-3,17.4-4.8c5.5-1.8,10.3-3.7,13.7-5.4c1.7-0.8,3-1.5,3.9-2.1C448,411.9,448.4,411.5,448.4,411.5z"/>
		<path class="st12" d="M455.2,409.3c-1.6,4.2-3.7,7.6-8.1,11.2c-22.7,18.3-71.5,17.9-89.4,12.4c-7.1-2.2-13.9-4.1-15.3-12.2
			c-0.9,0.6-1.4,1.5-1.5,2.7c-0.3,12.8,27.5,17.4,59.4,14.5c32-3,56.8-12.7,55.1-27.2C455.5,410.1,455.4,409.7,455.2,409.3z"/>
		<path class="st12" d="M401.5,422.2c3.1,3.8,5.6,8.1,7.3,12.6c0.3,0.6,0.5,1.2,0.7,1.9c0.4-0.1,0.8-0.1,1.2-0.2
			c-0.2-0.7-0.5-1.4-0.8-2.1C407.8,429.8,404.9,425.8,401.5,422.2z M421.4,418.3c3.2,2.9,5.2,6.9,6.5,10.9c0.4,1.1,0.8,2.3,1.1,3.5
			c0.3-0.1,0.7-0.2,1-0.3c-0.3-1.2-0.7-2.4-1.1-3.6C427.2,424.8,424.8,421,421.4,418.3z M368.8,435.4c-0.2,0.9-0.4,1.7-0.6,2.5
			c0.3,0,0.7,0.1,1,0.1c0.2-0.8,0.4-1.6,0.6-2.5c0.6-4,0.4-8.2-0.4-12.1C369.8,427.5,369.6,431.5,368.8,435.4z M444.4,422.4
			c-0.8-1.7-1.9-3.3-3.2-4.6c-1.3-1.3-3-2.4-4.8-2.7c1.8,0.5,3.3,1.7,4.5,3.1c1.2,1.4,2,3,2.7,4.7c0.5,1.1,0.9,2.3,1.2,3.5
			c0.3-0.2,0.6-0.3,0.8-0.5C445.3,424.7,444.9,423.5,444.4,422.4z M383.3,424.5c1.3,1.6,2,3.6,2.5,5.6c0.4,2,0.6,4,0.5,6.1
			c0,0.8,0,1.6-0.1,2.5c0.3,0,0.7,0,1,0c0.1-0.8,0.1-1.6,0.1-2.4c-0.1-2.1-0.4-4.2-1-6.2C385.6,427.9,384.7,426,383.3,424.5z"/>
	</g>
	<g>
		<path class="st3" d="M179.5,412.2l0.1,15.8c11.8,81.9,82.8,144.9,168.7,144.9c85.9,0,157-63,168.8-144.9l0.2-15.8
			c0,0-37.3,25.6-169.2,25.6C216.2,437.9,179.5,412.2,179.5,412.2z"/>
		<path class="st4" d="M516.6,430.9c0.2-1,0.3-1.9,0.5-2.9l0-2.2c-10.5,5.1-55.2,22.8-169.1,22.8c-106.7,0-153.5-16.5-168.5-23.4
			l0,2.8c0.1,0.7,0.2,1.4,0.4,2.1c17.6,7.6,65.6,22.8,168.1,22.8C456.3,453,502.1,437.4,516.6,430.9z"/>
	</g>
	<path class="st7" d="M484.5,447.1c0,0-17.5,5.7-37.4,5.7c0,0,2.6,54-34.4,81.8C412.7,534.5,464.6,527.4,484.5,447.1z"/>
	<path class="st5" d="M179.6,428c11.8,81.9,82.8,144.9,168.7,144.9c38.5,0,74.1-12.7,102.6-34c-23.9,13.2-60.2,26.4-106.3,23.4
		c-70.1-4.6-121.9-73.5-133.8-122.3c-14.8-3.6-24.7-7.2-30.9-9.9C179.9,429.4,179.7,428.8,179.6,428z"/>
	<g>
		<path class="st2" d="M263.5,559.9c-0.5,2.2,0.8,4.4,2.9,4.9l19.8,4.5c2.1,0.5,4.2-1,4.7-3.2l4.6-20.4c0.5-2.2-0.8-4.4-2.9-4.9
			l-19.8-4.5c-2.1-0.5-4.2,1-4.7,3.2L263.5,559.9z"/>
	</g>
	<g>
		<path class="st2" d="M436.4,559.9c0.5,2.2-0.8,4.4-2.9,4.9l-19.8,4.5c-2.1,0.5-4.2-1-4.7-3.2l-4.6-20.4c-0.5-2.2,0.8-4.4,2.9-4.9
			l19.8-4.5c2.1-0.5,4.2,1,4.7,3.2L436.4,559.9z"/>
	</g>
	<path class="st14" d="M340.5,135.8c-0.2,0.4,0.9,1.3,2.7,3.1c1.8,1.8,4.4,4.4,6.6,8.2c2.3,3.8,4.2,8.8,5,14.6
		c0.9,5.9,0.8,12.6-0.2,19.6c-0.5,3.5-1.2,7.1-2.2,10.8c-0.9,3.6-2.1,7.4-3.3,11.1c-2.5,7.5-5.5,15.1-8.6,22.7
		c-3,7.6-6.1,15.3-8.8,22.8c-2.7,7.6-5,15-6.6,22.2c-1.6,7.2-2.8,15.1-2.9,23.5c0,4.2,0.3,8.5,0.9,12.8c0.3,2.2,0.7,4.3,1.2,6.5
		c0.5,2.2,1.2,4.4,2,6.5c1.6,4.3,3.7,8.3,6,12c2.4,3.7,5,7.1,7.6,10.3c5.2,6.4,10.5,12.1,14.4,18c2,2.9,3.7,5.9,5.1,8.8
		c1.4,2.9,2.4,6,3.3,8.9c1.7,5.8,2.5,11.3,2.6,15.8c0.1,4.5-0.6,8.1-1.3,10.6c-0.7,2.5-1.2,3.8-1,3.9c0.2,0.1,1.2-0.9,2.5-3.3
		c1.3-2.4,2.7-6.1,3.3-11c0.6-4.9,0.5-10.8-0.7-17.3c-0.6-3.2-1.4-6.6-2.6-10.1c-1.2-3.5-2.8-7-4.8-10.4
		c-3.8-6.8-8.9-13.2-13.4-19.7c-4.6-6.4-8.6-13.1-10.8-20.1c-0.6-1.8-1-3.5-1.3-5.3c-0.3-1.9-0.6-3.7-0.8-5.6
		c-0.4-3.7-0.5-7.5-0.4-11.1c0.3-7.4,1.4-14.5,2.9-21c1.5-6.6,3.6-13.7,6-21c2.4-7.4,5.2-15,8-22.8c2.8-7.8,5.5-15.7,7.7-23.7
		c1.1-4,2.1-8,2.8-12c0.7-4,1.3-8,1.5-11.9c0.5-7.8-0.1-15.3-1.8-21.8c-1.7-6.5-4.6-12-7.8-15.9c-3.2-3.9-6.6-6.2-8.9-7.5
		C342.1,135.8,340.6,135.5,340.5,135.8z"/>
	<path class="st14" d="M403.8,422.8c0.2-0.3-0.7-1.2-1.8-3.1c-1.1-1.9-2.2-4.9-2.1-8.8c0.1-3.9,1.2-8.7,3-13.9
		c1.8-5.2,4.3-10.9,7-17.1c1.3-3.1,2.7-6.3,4-9.7c0.6-1.7,1.3-3.5,1.8-5.4c0.3-0.9,0.5-1.9,0.7-2.9c0.1-0.5,0.2-1,0.3-1.6l0.2-1.4
		c0.9-7.4,1.4-15.1,1.2-22.8c-0.3-7.7-1.3-15.4-3.4-22.7c-1-3.6-2.3-7.1-3.9-10.5c-0.4-0.8-0.8-1.6-1.2-2.4l-1.2-2.2l-2.2-4.2
		c-5.7-11.1-11.6-24.1-14.4-38c-0.7-3.5-1.2-7-1.5-10.5c-0.1-0.9-0.2-1.8-0.2-2.5c0-0.8,0-1.7,0-2.5c0-1.7,0.2-3.4,0.4-5.1
		c0.8-6.8,2.6-13.5,5-19.5c2.4-6,5.3-11.5,8.5-15.8c3.2-4.4,6.8-7.7,10.4-9.4c3.5-1.7,6.8-1.6,9-1c2.2,0.5,3.3,1.2,3.5,1
		c0.1-0.1-0.8-1.2-3-2.3c-1.1-0.5-2.6-1-4.4-1.2c-1.8-0.2-3.9,0.1-6.1,0.8c-4.4,1.4-8.9,4.7-12.9,9.2c-4,4.4-7.6,10-10.6,16.3
		c-3,6.3-5.5,13.3-6.9,20.9c-0.3,1.9-0.6,3.8-0.8,5.8c-0.1,1-0.2,1.9-0.2,3c0,1.1,0,2,0,3c0.1,3.9,0.5,7.8,1.1,11.6
		c1.2,7.7,3.3,15.1,5.8,22c2.5,6.9,5.5,13.3,8.4,19c0.7,1.4,1.5,2.9,2.3,4.4l1.1,2.1c0.4,0.7,0.7,1.4,1,2.1c1.3,2.8,2.5,5.9,3.5,9
		c2,6.4,3.1,13.3,3.6,20.4c0.5,7.1,0.3,14.4-0.2,21.5l-0.1,1.3c0,0.4-0.1,0.7-0.1,1.1c-0.1,0.8-0.3,1.6-0.4,2.4
		c-0.4,1.6-0.8,3.2-1.3,4.9c-1,3.3-2.2,6.5-3.3,9.6c-2.3,6.3-4.4,12.4-5.8,18.1c-1.4,5.7-2.1,11.1-1.5,15.6c0.3,2.3,0.8,4.3,1.6,6
		c0.8,1.7,1.7,2.9,2.6,3.8C402.3,422.6,403.6,423,403.8,422.8z"/>
	<path class="st14" d="M275.3,421.5c0.2,0.3,1.3-0.2,3.1-1.4c1.7-1.2,4.1-3.3,6.4-6.6c2.2-3.3,4.2-7.9,4.9-13.2
		c0.7-5.4,0.3-11.3-1-17.4c-2.5-12.1-8-24.3-12.9-36.2c-2.4-5.9-4.7-11.8-6.2-17.3c-0.4-1.4-0.7-2.7-0.9-4.1l-0.2-1
		c0-0.3-0.1-0.5-0.1-0.8c-0.1-0.6-0.1-1.3-0.2-2c-0.2-2.7-0.2-5.3,0-7.9c0.5-10.3,3.2-22.4,6.6-34.8c3.3-12.4,7-25.1,8.9-37
		c1-5.9,1.4-11.6,1.3-16.8c-0.1-5.2-0.8-9.8-1.8-13.5c-1-3.7-2.3-6.5-3.3-8.3c-1-1.8-1.8-2.7-2-2.6c-0.5,0.2,1.4,4.4,2.1,11.5
		c0.4,3.6,0.4,7.9-0.1,12.6c-0.5,4.8-1.5,10-3,15.6c-2.9,11.1-7.5,23.2-11.6,35.6c-4.1,12.4-7.6,25.2-8.2,37.1
		c-0.1,3-0.1,6.1,0.1,9.3c0.1,0.8,0.1,1.6,0.3,2.5c0,0.4,0.1,0.9,0.2,1.4l0.2,1.3c0.4,1.6,0.8,3.3,1.2,4.9
		c1.9,6.4,4.6,12.5,7.3,18.4c5.5,11.9,11.5,23.3,14.8,34c1.6,5.3,2.5,10.4,2.5,15c0,4.6-1.1,8.5-2.5,11.7c-1.4,3.2-3.1,5.5-4.2,7.1
		C275.7,420.2,275.1,421.2,275.3,421.5z"/>
	<polygon class="st15" points="284.8,576.7 236.1,791.2 243.4,791.2 	"/>
</g>
<path class="st0" d="M551.9,311.1c0,0,27.5-37.2,80.1-14.8C602,299.8,579.3,287.1,551.9,311.1z"/>
<path class="st0" d="M699.3,246.4c0,0-56.5-1.8-67.3,49.9C655,276.6,663.1,250.3,699.3,246.4z"/>
<path class="st0" d="M544.9,363.1c0,0,30.8-21.6,65.5,9.1C586.3,367.3,572.1,351.7,544.9,363.1z"/>
<path class="st0" d="M675,351.1c0,0-43-15.9-64.6,21.1C633.1,363,646.1,344.9,675,351.1z"/>
<g>
	<path class="st0" d="M0,327.9c0,0,29.7-8.3,48.2,24.9C30.9,342.4,24.2,326.5,0,327.9z"/>
	<path class="st0" d="M103.9,354c0,0-29-24-55.7-1.3C68.3,351.8,83.2,341.4,103.9,354z"/>
</g>
</svg>
